<?xml version="1.0" encoding="UTF-8"?>
<svg xmlns="http://www.w3.org/2000/svg"
     xmlns:xlink="http://www.w3.org/1999/xlink"
     version="1.2"
     width="700" height="700"
     viewBox="-350 -350 700 700" preserveAspectRatio="xMinYMin meet"
     >
<title>1225 Gates</title>
<desc>50 nodes fully connected in 1225 gates, with mesmerizing animation.</desc>
<!--
elisp for a path for all n lines...
(let* ((radius 300.0)
       (ang-rad (lambda (n) (/ (* pi (- -90 (* 360 (/ n 10.0)))) 180.0)))
       (line-path (lambda (a1 a2)
		    (format "M%f,%fL%f,%f\n"
			    (* radius (cos a1))
			    (* radius (sin a1))
			    (* radius (cos a2))
			    (* radius (sin a2)))))
       (pairs (cl-loop for x from 0 to 8 appending
		       (cl-loop for y from (+ x 1) to 9 collecting
				(list (funcall ang-rad x)
				      (funcall ang-rad y))))))
  (apply #'concat (cl-loop for angles in pairs
			   collect (apply line-path angles))))

elisp for the outside guidelines...
(let* ((radius 500.0)
       (ang-rad (lambda (n) (/ (* pi (- -90 (* 360 (/ n 50.0)))) 180.0)))
       (line-path (lambda (a1 a2)
		    (format "M%f,%fL%f,%f\n"
			    (* radius (cos a1))
			    (* radius (sin a1))
			    (* radius (cos a2))
			    (* radius (sin a2)))))
       (pairs (cl-loop for x from 0 to 24
		       for y from 25 to 49
		       collecting (list (funcall ang-rad x)
					(funcall ang-rad y)))))
  (apply #'concat (cl-loop for angles in pairs
			   collect (apply line-path angles))))
-->

<defs>
  <mask id="centermask">
    <rect x="-500" y="-500" width="1000" height="1000" fill="white" />
    <circle cx="0" cy="0" r="305" fill="black" />
  </mask>
</defs>

<path mask="url(#centermask)"
      stroke="black" stroke-width="3"
d="M0.000000,-500.000000L-0.000000,500.000000
M-62.666617,-496.057351L62.666617,496.057351
M-124.344944,-484.291581L124.344944,484.291581
M-184.062276,-464.888243L184.062276,464.888243
M-240.876837,-438.153340L240.876837,438.153340
M-293.892626,-404.508497L293.892626,404.508497
M-342.273553,-364.484314L342.273553,364.484314
M-385.256621,-318.711995L385.256621,318.711995
M-422.163963,-267.913397L422.163963,267.913397
M-452.413526,-212.889646L452.413526,212.889646
M-475.528258,-154.508497L475.528258,154.508497
M-491.143625,-93.690657L491.143625,93.690657
M-499.013364,-31.395260L499.013364,31.395260
M-499.013364,31.395260L499.013364,-31.395260
M-491.143625,93.690657L491.143625,-93.690657
M-475.528258,154.508497L475.528258,-154.508497
M-452.413526,212.889646L452.413526,-212.889646
M-422.163963,267.913397L422.163963,-267.913397
M-385.256621,318.711995L385.256621,-318.711995
M-342.273553,364.484314L342.273553,-364.484314
M-293.892626,404.508497L293.892626,-404.508497
M-240.876837,438.153340L240.876837,-438.153340
M-184.062276,464.888243L184.062276,-464.888243
M-124.344944,484.291581L124.344944,-484.291581
M-62.666617,496.057351L62.666617,-496.057351
"
>
  <animateTransform attributeName="transform"
                          attributeType="XML"
                          type="rotate"
                          from="360"
                          to="0"
                          dur="40s"
                          repeatCount="indefinite"/>
</path>
<path stroke="black" stroke-width="1" d=
"M0.000000,-300.000000L-37.599970,-297.634410
M0.000000,-300.000000L-74.606966,-290.574948
M0.000000,-300.000000L-110.437366,-278.932946
M0.000000,-300.000000L-144.526102,-262.892004
M0.000000,-300.000000L-176.335576,-242.705098
M0.000000,-300.000000L-205.364132,-218.690588
M0.000000,-300.000000L-231.153973,-191.227197
M0.000000,-300.000000L-253.298378,-160.748038
M0.000000,-300.000000L-271.448116,-127.733787
M0.000000,-300.000000L-285.316955,-92.705098
M0.000000,-300.000000L-294.686175,-56.214394
M0.000000,-300.000000L-299.408019,-18.837156
M0.000000,-300.000000L-299.408019,18.837156
M0.000000,-300.000000L-294.686175,56.214394
M0.000000,-300.000000L-285.316955,92.705098
M0.000000,-300.000000L-271.448116,127.733787
M0.000000,-300.000000L-253.298378,160.748038
M0.000000,-300.000000L-231.153973,191.227197
M0.000000,-300.000000L-205.364132,218.690588
M0.000000,-300.000000L-176.335576,242.705098
M0.000000,-300.000000L-144.526102,262.892004
M0.000000,-300.000000L-110.437366,278.932946
M0.000000,-300.000000L-74.606966,290.574948
M0.000000,-300.000000L-37.599970,297.634410
M0.000000,-300.000000L-0.000000,300.000000
M0.000000,-300.000000L37.599970,297.634410
M0.000000,-300.000000L74.606966,290.574948
M0.000000,-300.000000L110.437366,278.932946
M0.000000,-300.000000L144.526102,262.892004
M0.000000,-300.000000L176.335576,242.705098
M0.000000,-300.000000L205.364132,218.690588
M0.000000,-300.000000L231.153973,191.227197
M0.000000,-300.000000L253.298378,160.748038
M0.000000,-300.000000L271.448116,127.733787
M0.000000,-300.000000L285.316955,92.705098
M0.000000,-300.000000L294.686175,56.214394
M0.000000,-300.000000L299.408019,18.837156
M0.000000,-300.000000L299.408019,-18.837156
M0.000000,-300.000000L294.686175,-56.214394
M0.000000,-300.000000L285.316955,-92.705098
M0.000000,-300.000000L271.448116,-127.733787
M0.000000,-300.000000L253.298378,-160.748038
M0.000000,-300.000000L231.153973,-191.227197
M0.000000,-300.000000L205.364132,-218.690588
M0.000000,-300.000000L176.335576,-242.705098
M0.000000,-300.000000L144.526102,-262.892004
M0.000000,-300.000000L110.437366,-278.932946
M0.000000,-300.000000L74.606966,-290.574948
M0.000000,-300.000000L37.599970,-297.634410
M-37.599970,-297.634410L-74.606966,-290.574948
M-37.599970,-297.634410L-110.437366,-278.932946
M-37.599970,-297.634410L-144.526102,-262.892004
M-37.599970,-297.634410L-176.335576,-242.705098
M-37.599970,-297.634410L-205.364132,-218.690588
M-37.599970,-297.634410L-231.153973,-191.227197
M-37.599970,-297.634410L-253.298378,-160.748038
M-37.599970,-297.634410L-271.448116,-127.733787
M-37.599970,-297.634410L-285.316955,-92.705098
M-37.599970,-297.634410L-294.686175,-56.214394
M-37.599970,-297.634410L-299.408019,-18.837156
M-37.599970,-297.634410L-299.408019,18.837156
M-37.599970,-297.634410L-294.686175,56.214394
M-37.599970,-297.634410L-285.316955,92.705098
M-37.599970,-297.634410L-271.448116,127.733787
M-37.599970,-297.634410L-253.298378,160.748038
M-37.599970,-297.634410L-231.153973,191.227197
M-37.599970,-297.634410L-205.364132,218.690588
M-37.599970,-297.634410L-176.335576,242.705098
M-37.599970,-297.634410L-144.526102,262.892004
M-37.599970,-297.634410L-110.437366,278.932946
M-37.599970,-297.634410L-74.606966,290.574948
M-37.599970,-297.634410L-37.599970,297.634410
M-37.599970,-297.634410L-0.000000,300.000000
M-37.599970,-297.634410L37.599970,297.634410
M-37.599970,-297.634410L74.606966,290.574948
M-37.599970,-297.634410L110.437366,278.932946
M-37.599970,-297.634410L144.526102,262.892004
M-37.599970,-297.634410L176.335576,242.705098
M-37.599970,-297.634410L205.364132,218.690588
M-37.599970,-297.634410L231.153973,191.227197
M-37.599970,-297.634410L253.298378,160.748038
M-37.599970,-297.634410L271.448116,127.733787
M-37.599970,-297.634410L285.316955,92.705098
M-37.599970,-297.634410L294.686175,56.214394
M-37.599970,-297.634410L299.408019,18.837156
M-37.599970,-297.634410L299.408019,-18.837156
M-37.599970,-297.634410L294.686175,-56.214394
M-37.599970,-297.634410L285.316955,-92.705098
M-37.599970,-297.634410L271.448116,-127.733787
M-37.599970,-297.634410L253.298378,-160.748038
M-37.599970,-297.634410L231.153973,-191.227197
M-37.599970,-297.634410L205.364132,-218.690588
M-37.599970,-297.634410L176.335576,-242.705098
M-37.599970,-297.634410L144.526102,-262.892004
M-37.599970,-297.634410L110.437366,-278.932946
M-37.599970,-297.634410L74.606966,-290.574948
M-37.599970,-297.634410L37.599970,-297.634410
M-74.606966,-290.574948L-110.437366,-278.932946
M-74.606966,-290.574948L-144.526102,-262.892004
M-74.606966,-290.574948L-176.335576,-242.705098
M-74.606966,-290.574948L-205.364132,-218.690588
M-74.606966,-290.574948L-231.153973,-191.227197
M-74.606966,-290.574948L-253.298378,-160.748038
M-74.606966,-290.574948L-271.448116,-127.733787
M-74.606966,-290.574948L-285.316955,-92.705098
M-74.606966,-290.574948L-294.686175,-56.214394
M-74.606966,-290.574948L-299.408019,-18.837156
M-74.606966,-290.574948L-299.408019,18.837156
M-74.606966,-290.574948L-294.686175,56.214394
M-74.606966,-290.574948L-285.316955,92.705098
M-74.606966,-290.574948L-271.448116,127.733787
M-74.606966,-290.574948L-253.298378,160.748038
M-74.606966,-290.574948L-231.153973,191.227197
M-74.606966,-290.574948L-205.364132,218.690588
M-74.606966,-290.574948L-176.335576,242.705098
M-74.606966,-290.574948L-144.526102,262.892004
M-74.606966,-290.574948L-110.437366,278.932946
M-74.606966,-290.574948L-74.606966,290.574948
M-74.606966,-290.574948L-37.599970,297.634410
M-74.606966,-290.574948L-0.000000,300.000000
M-74.606966,-290.574948L37.599970,297.634410
M-74.606966,-290.574948L74.606966,290.574948
M-74.606966,-290.574948L110.437366,278.932946
M-74.606966,-290.574948L144.526102,262.892004
M-74.606966,-290.574948L176.335576,242.705098
M-74.606966,-290.574948L205.364132,218.690588
M-74.606966,-290.574948L231.153973,191.227197
M-74.606966,-290.574948L253.298378,160.748038
M-74.606966,-290.574948L271.448116,127.733787
M-74.606966,-290.574948L285.316955,92.705098
M-74.606966,-290.574948L294.686175,56.214394
M-74.606966,-290.574948L299.408019,18.837156
M-74.606966,-290.574948L299.408019,-18.837156
M-74.606966,-290.574948L294.686175,-56.214394
M-74.606966,-290.574948L285.316955,-92.705098
M-74.606966,-290.574948L271.448116,-127.733787
M-74.606966,-290.574948L253.298378,-160.748038
M-74.606966,-290.574948L231.153973,-191.227197
M-74.606966,-290.574948L205.364132,-218.690588
M-74.606966,-290.574948L176.335576,-242.705098
M-74.606966,-290.574948L144.526102,-262.892004
M-74.606966,-290.574948L110.437366,-278.932946
M-74.606966,-290.574948L74.606966,-290.574948
M-74.606966,-290.574948L37.599970,-297.634410
M-110.437366,-278.932946L-144.526102,-262.892004
M-110.437366,-278.932946L-176.335576,-242.705098
M-110.437366,-278.932946L-205.364132,-218.690588
M-110.437366,-278.932946L-231.153973,-191.227197
M-110.437366,-278.932946L-253.298378,-160.748038
M-110.437366,-278.932946L-271.448116,-127.733787
M-110.437366,-278.932946L-285.316955,-92.705098
M-110.437366,-278.932946L-294.686175,-56.214394
M-110.437366,-278.932946L-299.408019,-18.837156
M-110.437366,-278.932946L-299.408019,18.837156
M-110.437366,-278.932946L-294.686175,56.214394
M-110.437366,-278.932946L-285.316955,92.705098
M-110.437366,-278.932946L-271.448116,127.733787
M-110.437366,-278.932946L-253.298378,160.748038
M-110.437366,-278.932946L-231.153973,191.227197
M-110.437366,-278.932946L-205.364132,218.690588
M-110.437366,-278.932946L-176.335576,242.705098
M-110.437366,-278.932946L-144.526102,262.892004
M-110.437366,-278.932946L-110.437366,278.932946
M-110.437366,-278.932946L-74.606966,290.574948
M-110.437366,-278.932946L-37.599970,297.634410
M-110.437366,-278.932946L-0.000000,300.000000
M-110.437366,-278.932946L37.599970,297.634410
M-110.437366,-278.932946L74.606966,290.574948
M-110.437366,-278.932946L110.437366,278.932946
M-110.437366,-278.932946L144.526102,262.892004
M-110.437366,-278.932946L176.335576,242.705098
M-110.437366,-278.932946L205.364132,218.690588
M-110.437366,-278.932946L231.153973,191.227197
M-110.437366,-278.932946L253.298378,160.748038
M-110.437366,-278.932946L271.448116,127.733787
M-110.437366,-278.932946L285.316955,92.705098
M-110.437366,-278.932946L294.686175,56.214394
M-110.437366,-278.932946L299.408019,18.837156
M-110.437366,-278.932946L299.408019,-18.837156
M-110.437366,-278.932946L294.686175,-56.214394
M-110.437366,-278.932946L285.316955,-92.705098
M-110.437366,-278.932946L271.448116,-127.733787
M-110.437366,-278.932946L253.298378,-160.748038
M-110.437366,-278.932946L231.153973,-191.227197
M-110.437366,-278.932946L205.364132,-218.690588
M-110.437366,-278.932946L176.335576,-242.705098
M-110.437366,-278.932946L144.526102,-262.892004
M-110.437366,-278.932946L110.437366,-278.932946
M-110.437366,-278.932946L74.606966,-290.574948
M-110.437366,-278.932946L37.599970,-297.634410
M-144.526102,-262.892004L-176.335576,-242.705098
M-144.526102,-262.892004L-205.364132,-218.690588
M-144.526102,-262.892004L-231.153973,-191.227197
M-144.526102,-262.892004L-253.298378,-160.748038
M-144.526102,-262.892004L-271.448116,-127.733787
M-144.526102,-262.892004L-285.316955,-92.705098
M-144.526102,-262.892004L-294.686175,-56.214394
M-144.526102,-262.892004L-299.408019,-18.837156
M-144.526102,-262.892004L-299.408019,18.837156
M-144.526102,-262.892004L-294.686175,56.214394
M-144.526102,-262.892004L-285.316955,92.705098
M-144.526102,-262.892004L-271.448116,127.733787
M-144.526102,-262.892004L-253.298378,160.748038
M-144.526102,-262.892004L-231.153973,191.227197
M-144.526102,-262.892004L-205.364132,218.690588
M-144.526102,-262.892004L-176.335576,242.705098
M-144.526102,-262.892004L-144.526102,262.892004
M-144.526102,-262.892004L-110.437366,278.932946
M-144.526102,-262.892004L-74.606966,290.574948
M-144.526102,-262.892004L-37.599970,297.634410
M-144.526102,-262.892004L-0.000000,300.000000
M-144.526102,-262.892004L37.599970,297.634410
M-144.526102,-262.892004L74.606966,290.574948
M-144.526102,-262.892004L110.437366,278.932946
M-144.526102,-262.892004L144.526102,262.892004
M-144.526102,-262.892004L176.335576,242.705098
M-144.526102,-262.892004L205.364132,218.690588
M-144.526102,-262.892004L231.153973,191.227197
M-144.526102,-262.892004L253.298378,160.748038
M-144.526102,-262.892004L271.448116,127.733787
M-144.526102,-262.892004L285.316955,92.705098
M-144.526102,-262.892004L294.686175,56.214394
M-144.526102,-262.892004L299.408019,18.837156
M-144.526102,-262.892004L299.408019,-18.837156
M-144.526102,-262.892004L294.686175,-56.214394
M-144.526102,-262.892004L285.316955,-92.705098
M-144.526102,-262.892004L271.448116,-127.733787
M-144.526102,-262.892004L253.298378,-160.748038
M-144.526102,-262.892004L231.153973,-191.227197
M-144.526102,-262.892004L205.364132,-218.690588
M-144.526102,-262.892004L176.335576,-242.705098
M-144.526102,-262.892004L144.526102,-262.892004
M-144.526102,-262.892004L110.437366,-278.932946
M-144.526102,-262.892004L74.606966,-290.574948
M-144.526102,-262.892004L37.599970,-297.634410
M-176.335576,-242.705098L-205.364132,-218.690588
M-176.335576,-242.705098L-231.153973,-191.227197
M-176.335576,-242.705098L-253.298378,-160.748038
M-176.335576,-242.705098L-271.448116,-127.733787
M-176.335576,-242.705098L-285.316955,-92.705098
M-176.335576,-242.705098L-294.686175,-56.214394
M-176.335576,-242.705098L-299.408019,-18.837156
M-176.335576,-242.705098L-299.408019,18.837156
M-176.335576,-242.705098L-294.686175,56.214394
M-176.335576,-242.705098L-285.316955,92.705098
M-176.335576,-242.705098L-271.448116,127.733787
M-176.335576,-242.705098L-253.298378,160.748038
M-176.335576,-242.705098L-231.153973,191.227197
M-176.335576,-242.705098L-205.364132,218.690588
M-176.335576,-242.705098L-176.335576,242.705098
M-176.335576,-242.705098L-144.526102,262.892004
M-176.335576,-242.705098L-110.437366,278.932946
M-176.335576,-242.705098L-74.606966,290.574948
M-176.335576,-242.705098L-37.599970,297.634410
M-176.335576,-242.705098L-0.000000,300.000000
M-176.335576,-242.705098L37.599970,297.634410
M-176.335576,-242.705098L74.606966,290.574948
M-176.335576,-242.705098L110.437366,278.932946
M-176.335576,-242.705098L144.526102,262.892004
M-176.335576,-242.705098L176.335576,242.705098
M-176.335576,-242.705098L205.364132,218.690588
M-176.335576,-242.705098L231.153973,191.227197
M-176.335576,-242.705098L253.298378,160.748038
M-176.335576,-242.705098L271.448116,127.733787
M-176.335576,-242.705098L285.316955,92.705098
M-176.335576,-242.705098L294.686175,56.214394
M-176.335576,-242.705098L299.408019,18.837156
M-176.335576,-242.705098L299.408019,-18.837156
M-176.335576,-242.705098L294.686175,-56.214394
M-176.335576,-242.705098L285.316955,-92.705098
M-176.335576,-242.705098L271.448116,-127.733787
M-176.335576,-242.705098L253.298378,-160.748038
M-176.335576,-242.705098L231.153973,-191.227197
M-176.335576,-242.705098L205.364132,-218.690588
M-176.335576,-242.705098L176.335576,-242.705098
M-176.335576,-242.705098L144.526102,-262.892004
M-176.335576,-242.705098L110.437366,-278.932946
M-176.335576,-242.705098L74.606966,-290.574948
M-176.335576,-242.705098L37.599970,-297.634410
M-205.364132,-218.690588L-231.153973,-191.227197
M-205.364132,-218.690588L-253.298378,-160.748038
M-205.364132,-218.690588L-271.448116,-127.733787
M-205.364132,-218.690588L-285.316955,-92.705098
M-205.364132,-218.690588L-294.686175,-56.214394
M-205.364132,-218.690588L-299.408019,-18.837156
M-205.364132,-218.690588L-299.408019,18.837156
M-205.364132,-218.690588L-294.686175,56.214394
M-205.364132,-218.690588L-285.316955,92.705098
M-205.364132,-218.690588L-271.448116,127.733787
M-205.364132,-218.690588L-253.298378,160.748038
M-205.364132,-218.690588L-231.153973,191.227197
M-205.364132,-218.690588L-205.364132,218.690588
M-205.364132,-218.690588L-176.335576,242.705098
M-205.364132,-218.690588L-144.526102,262.892004
M-205.364132,-218.690588L-110.437366,278.932946
M-205.364132,-218.690588L-74.606966,290.574948
M-205.364132,-218.690588L-37.599970,297.634410
M-205.364132,-218.690588L-0.000000,300.000000
M-205.364132,-218.690588L37.599970,297.634410
M-205.364132,-218.690588L74.606966,290.574948
M-205.364132,-218.690588L110.437366,278.932946
M-205.364132,-218.690588L144.526102,262.892004
M-205.364132,-218.690588L176.335576,242.705098
M-205.364132,-218.690588L205.364132,218.690588
M-205.364132,-218.690588L231.153973,191.227197
M-205.364132,-218.690588L253.298378,160.748038
M-205.364132,-218.690588L271.448116,127.733787
M-205.364132,-218.690588L285.316955,92.705098
M-205.364132,-218.690588L294.686175,56.214394
M-205.364132,-218.690588L299.408019,18.837156
M-205.364132,-218.690588L299.408019,-18.837156
M-205.364132,-218.690588L294.686175,-56.214394
M-205.364132,-218.690588L285.316955,-92.705098
M-205.364132,-218.690588L271.448116,-127.733787
M-205.364132,-218.690588L253.298378,-160.748038
M-205.364132,-218.690588L231.153973,-191.227197
M-205.364132,-218.690588L205.364132,-218.690588
M-205.364132,-218.690588L176.335576,-242.705098
M-205.364132,-218.690588L144.526102,-262.892004
M-205.364132,-218.690588L110.437366,-278.932946
M-205.364132,-218.690588L74.606966,-290.574948
M-205.364132,-218.690588L37.599970,-297.634410
M-231.153973,-191.227197L-253.298378,-160.748038
M-231.153973,-191.227197L-271.448116,-127.733787
M-231.153973,-191.227197L-285.316955,-92.705098
M-231.153973,-191.227197L-294.686175,-56.214394
M-231.153973,-191.227197L-299.408019,-18.837156
M-231.153973,-191.227197L-299.408019,18.837156
M-231.153973,-191.227197L-294.686175,56.214394
M-231.153973,-191.227197L-285.316955,92.705098
M-231.153973,-191.227197L-271.448116,127.733787
M-231.153973,-191.227197L-253.298378,160.748038
M-231.153973,-191.227197L-231.153973,191.227197
M-231.153973,-191.227197L-205.364132,218.690588
M-231.153973,-191.227197L-176.335576,242.705098
M-231.153973,-191.227197L-144.526102,262.892004
M-231.153973,-191.227197L-110.437366,278.932946
M-231.153973,-191.227197L-74.606966,290.574948
M-231.153973,-191.227197L-37.599970,297.634410
M-231.153973,-191.227197L-0.000000,300.000000
M-231.153973,-191.227197L37.599970,297.634410
M-231.153973,-191.227197L74.606966,290.574948
M-231.153973,-191.227197L110.437366,278.932946
M-231.153973,-191.227197L144.526102,262.892004
M-231.153973,-191.227197L176.335576,242.705098
M-231.153973,-191.227197L205.364132,218.690588
M-231.153973,-191.227197L231.153973,191.227197
M-231.153973,-191.227197L253.298378,160.748038
M-231.153973,-191.227197L271.448116,127.733787
M-231.153973,-191.227197L285.316955,92.705098
M-231.153973,-191.227197L294.686175,56.214394
M-231.153973,-191.227197L299.408019,18.837156
M-231.153973,-191.227197L299.408019,-18.837156
M-231.153973,-191.227197L294.686175,-56.214394
M-231.153973,-191.227197L285.316955,-92.705098
M-231.153973,-191.227197L271.448116,-127.733787
M-231.153973,-191.227197L253.298378,-160.748038
M-231.153973,-191.227197L231.153973,-191.227197
M-231.153973,-191.227197L205.364132,-218.690588
M-231.153973,-191.227197L176.335576,-242.705098
M-231.153973,-191.227197L144.526102,-262.892004
M-231.153973,-191.227197L110.437366,-278.932946
M-231.153973,-191.227197L74.606966,-290.574948
M-231.153973,-191.227197L37.599970,-297.634410
M-253.298378,-160.748038L-271.448116,-127.733787
M-253.298378,-160.748038L-285.316955,-92.705098
M-253.298378,-160.748038L-294.686175,-56.214394
M-253.298378,-160.748038L-299.408019,-18.837156
M-253.298378,-160.748038L-299.408019,18.837156
M-253.298378,-160.748038L-294.686175,56.214394
M-253.298378,-160.748038L-285.316955,92.705098
M-253.298378,-160.748038L-271.448116,127.733787
M-253.298378,-160.748038L-253.298378,160.748038
M-253.298378,-160.748038L-231.153973,191.227197
M-253.298378,-160.748038L-205.364132,218.690588
M-253.298378,-160.748038L-176.335576,242.705098
M-253.298378,-160.748038L-144.526102,262.892004
M-253.298378,-160.748038L-110.437366,278.932946
M-253.298378,-160.748038L-74.606966,290.574948
M-253.298378,-160.748038L-37.599970,297.634410
M-253.298378,-160.748038L-0.000000,300.000000
M-253.298378,-160.748038L37.599970,297.634410
M-253.298378,-160.748038L74.606966,290.574948
M-253.298378,-160.748038L110.437366,278.932946
M-253.298378,-160.748038L144.526102,262.892004
M-253.298378,-160.748038L176.335576,242.705098
M-253.298378,-160.748038L205.364132,218.690588
M-253.298378,-160.748038L231.153973,191.227197
M-253.298378,-160.748038L253.298378,160.748038
M-253.298378,-160.748038L271.448116,127.733787
M-253.298378,-160.748038L285.316955,92.705098
M-253.298378,-160.748038L294.686175,56.214394
M-253.298378,-160.748038L299.408019,18.837156
M-253.298378,-160.748038L299.408019,-18.837156
M-253.298378,-160.748038L294.686175,-56.214394
M-253.298378,-160.748038L285.316955,-92.705098
M-253.298378,-160.748038L271.448116,-127.733787
M-253.298378,-160.748038L253.298378,-160.748038
M-253.298378,-160.748038L231.153973,-191.227197
M-253.298378,-160.748038L205.364132,-218.690588
M-253.298378,-160.748038L176.335576,-242.705098
M-253.298378,-160.748038L144.526102,-262.892004
M-253.298378,-160.748038L110.437366,-278.932946
M-253.298378,-160.748038L74.606966,-290.574948
M-253.298378,-160.748038L37.599970,-297.634410
M-271.448116,-127.733787L-285.316955,-92.705098
M-271.448116,-127.733787L-294.686175,-56.214394
M-271.448116,-127.733787L-299.408019,-18.837156
M-271.448116,-127.733787L-299.408019,18.837156
M-271.448116,-127.733787L-294.686175,56.214394
M-271.448116,-127.733787L-285.316955,92.705098
M-271.448116,-127.733787L-271.448116,127.733787
M-271.448116,-127.733787L-253.298378,160.748038
M-271.448116,-127.733787L-231.153973,191.227197
M-271.448116,-127.733787L-205.364132,218.690588
M-271.448116,-127.733787L-176.335576,242.705098
M-271.448116,-127.733787L-144.526102,262.892004
M-271.448116,-127.733787L-110.437366,278.932946
M-271.448116,-127.733787L-74.606966,290.574948
M-271.448116,-127.733787L-37.599970,297.634410
M-271.448116,-127.733787L-0.000000,300.000000
M-271.448116,-127.733787L37.599970,297.634410
M-271.448116,-127.733787L74.606966,290.574948
M-271.448116,-127.733787L110.437366,278.932946
M-271.448116,-127.733787L144.526102,262.892004
M-271.448116,-127.733787L176.335576,242.705098
M-271.448116,-127.733787L205.364132,218.690588
M-271.448116,-127.733787L231.153973,191.227197
M-271.448116,-127.733787L253.298378,160.748038
M-271.448116,-127.733787L271.448116,127.733787
M-271.448116,-127.733787L285.316955,92.705098
M-271.448116,-127.733787L294.686175,56.214394
M-271.448116,-127.733787L299.408019,18.837156
M-271.448116,-127.733787L299.408019,-18.837156
M-271.448116,-127.733787L294.686175,-56.214394
M-271.448116,-127.733787L285.316955,-92.705098
M-271.448116,-127.733787L271.448116,-127.733787
M-271.448116,-127.733787L253.298378,-160.748038
M-271.448116,-127.733787L231.153973,-191.227197
M-271.448116,-127.733787L205.364132,-218.690588
M-271.448116,-127.733787L176.335576,-242.705098
M-271.448116,-127.733787L144.526102,-262.892004
M-271.448116,-127.733787L110.437366,-278.932946
M-271.448116,-127.733787L74.606966,-290.574948
M-271.448116,-127.733787L37.599970,-297.634410
M-285.316955,-92.705098L-294.686175,-56.214394
M-285.316955,-92.705098L-299.408019,-18.837156
M-285.316955,-92.705098L-299.408019,18.837156
M-285.316955,-92.705098L-294.686175,56.214394
M-285.316955,-92.705098L-285.316955,92.705098
M-285.316955,-92.705098L-271.448116,127.733787
M-285.316955,-92.705098L-253.298378,160.748038
M-285.316955,-92.705098L-231.153973,191.227197
M-285.316955,-92.705098L-205.364132,218.690588
M-285.316955,-92.705098L-176.335576,242.705098
M-285.316955,-92.705098L-144.526102,262.892004
M-285.316955,-92.705098L-110.437366,278.932946
M-285.316955,-92.705098L-74.606966,290.574948
M-285.316955,-92.705098L-37.599970,297.634410
M-285.316955,-92.705098L-0.000000,300.000000
M-285.316955,-92.705098L37.599970,297.634410
M-285.316955,-92.705098L74.606966,290.574948
M-285.316955,-92.705098L110.437366,278.932946
M-285.316955,-92.705098L144.526102,262.892004
M-285.316955,-92.705098L176.335576,242.705098
M-285.316955,-92.705098L205.364132,218.690588
M-285.316955,-92.705098L231.153973,191.227197
M-285.316955,-92.705098L253.298378,160.748038
M-285.316955,-92.705098L271.448116,127.733787
M-285.316955,-92.705098L285.316955,92.705098
M-285.316955,-92.705098L294.686175,56.214394
M-285.316955,-92.705098L299.408019,18.837156
M-285.316955,-92.705098L299.408019,-18.837156
M-285.316955,-92.705098L294.686175,-56.214394
M-285.316955,-92.705098L285.316955,-92.705098
M-285.316955,-92.705098L271.448116,-127.733787
M-285.316955,-92.705098L253.298378,-160.748038
M-285.316955,-92.705098L231.153973,-191.227197
M-285.316955,-92.705098L205.364132,-218.690588
M-285.316955,-92.705098L176.335576,-242.705098
M-285.316955,-92.705098L144.526102,-262.892004
M-285.316955,-92.705098L110.437366,-278.932946
M-285.316955,-92.705098L74.606966,-290.574948
M-285.316955,-92.705098L37.599970,-297.634410
M-294.686175,-56.214394L-299.408019,-18.837156
M-294.686175,-56.214394L-299.408019,18.837156
M-294.686175,-56.214394L-294.686175,56.214394
M-294.686175,-56.214394L-285.316955,92.705098
M-294.686175,-56.214394L-271.448116,127.733787
M-294.686175,-56.214394L-253.298378,160.748038
M-294.686175,-56.214394L-231.153973,191.227197
M-294.686175,-56.214394L-205.364132,218.690588
M-294.686175,-56.214394L-176.335576,242.705098
M-294.686175,-56.214394L-144.526102,262.892004
M-294.686175,-56.214394L-110.437366,278.932946
M-294.686175,-56.214394L-74.606966,290.574948
M-294.686175,-56.214394L-37.599970,297.634410
M-294.686175,-56.214394L-0.000000,300.000000
M-294.686175,-56.214394L37.599970,297.634410
M-294.686175,-56.214394L74.606966,290.574948
M-294.686175,-56.214394L110.437366,278.932946
M-294.686175,-56.214394L144.526102,262.892004
M-294.686175,-56.214394L176.335576,242.705098
M-294.686175,-56.214394L205.364132,218.690588
M-294.686175,-56.214394L231.153973,191.227197
M-294.686175,-56.214394L253.298378,160.748038
M-294.686175,-56.214394L271.448116,127.733787
M-294.686175,-56.214394L285.316955,92.705098
M-294.686175,-56.214394L294.686175,56.214394
M-294.686175,-56.214394L299.408019,18.837156
M-294.686175,-56.214394L299.408019,-18.837156
M-294.686175,-56.214394L294.686175,-56.214394
M-294.686175,-56.214394L285.316955,-92.705098
M-294.686175,-56.214394L271.448116,-127.733787
M-294.686175,-56.214394L253.298378,-160.748038
M-294.686175,-56.214394L231.153973,-191.227197
M-294.686175,-56.214394L205.364132,-218.690588
M-294.686175,-56.214394L176.335576,-242.705098
M-294.686175,-56.214394L144.526102,-262.892004
M-294.686175,-56.214394L110.437366,-278.932946
M-294.686175,-56.214394L74.606966,-290.574948
M-294.686175,-56.214394L37.599970,-297.634410
M-299.408019,-18.837156L-299.408019,18.837156
M-299.408019,-18.837156L-294.686175,56.214394
M-299.408019,-18.837156L-285.316955,92.705098
M-299.408019,-18.837156L-271.448116,127.733787
M-299.408019,-18.837156L-253.298378,160.748038
M-299.408019,-18.837156L-231.153973,191.227197
M-299.408019,-18.837156L-205.364132,218.690588
M-299.408019,-18.837156L-176.335576,242.705098
M-299.408019,-18.837156L-144.526102,262.892004
M-299.408019,-18.837156L-110.437366,278.932946
M-299.408019,-18.837156L-74.606966,290.574948
M-299.408019,-18.837156L-37.599970,297.634410
M-299.408019,-18.837156L-0.000000,300.000000
M-299.408019,-18.837156L37.599970,297.634410
M-299.408019,-18.837156L74.606966,290.574948
M-299.408019,-18.837156L110.437366,278.932946
M-299.408019,-18.837156L144.526102,262.892004
M-299.408019,-18.837156L176.335576,242.705098
M-299.408019,-18.837156L205.364132,218.690588
M-299.408019,-18.837156L231.153973,191.227197
M-299.408019,-18.837156L253.298378,160.748038
M-299.408019,-18.837156L271.448116,127.733787
M-299.408019,-18.837156L285.316955,92.705098
M-299.408019,-18.837156L294.686175,56.214394
M-299.408019,-18.837156L299.408019,18.837156
M-299.408019,-18.837156L299.408019,-18.837156
M-299.408019,-18.837156L294.686175,-56.214394
M-299.408019,-18.837156L285.316955,-92.705098
M-299.408019,-18.837156L271.448116,-127.733787
M-299.408019,-18.837156L253.298378,-160.748038
M-299.408019,-18.837156L231.153973,-191.227197
M-299.408019,-18.837156L205.364132,-218.690588
M-299.408019,-18.837156L176.335576,-242.705098
M-299.408019,-18.837156L144.526102,-262.892004
M-299.408019,-18.837156L110.437366,-278.932946
M-299.408019,-18.837156L74.606966,-290.574948
M-299.408019,-18.837156L37.599970,-297.634410
M-299.408019,18.837156L-294.686175,56.214394
M-299.408019,18.837156L-285.316955,92.705098
M-299.408019,18.837156L-271.448116,127.733787
M-299.408019,18.837156L-253.298378,160.748038
M-299.408019,18.837156L-231.153973,191.227197
M-299.408019,18.837156L-205.364132,218.690588
M-299.408019,18.837156L-176.335576,242.705098
M-299.408019,18.837156L-144.526102,262.892004
M-299.408019,18.837156L-110.437366,278.932946
M-299.408019,18.837156L-74.606966,290.574948
M-299.408019,18.837156L-37.599970,297.634410
M-299.408019,18.837156L-0.000000,300.000000
M-299.408019,18.837156L37.599970,297.634410
M-299.408019,18.837156L74.606966,290.574948
M-299.408019,18.837156L110.437366,278.932946
M-299.408019,18.837156L144.526102,262.892004
M-299.408019,18.837156L176.335576,242.705098
M-299.408019,18.837156L205.364132,218.690588
M-299.408019,18.837156L231.153973,191.227197
M-299.408019,18.837156L253.298378,160.748038
M-299.408019,18.837156L271.448116,127.733787
M-299.408019,18.837156L285.316955,92.705098
M-299.408019,18.837156L294.686175,56.214394
M-299.408019,18.837156L299.408019,18.837156
M-299.408019,18.837156L299.408019,-18.837156
M-299.408019,18.837156L294.686175,-56.214394
M-299.408019,18.837156L285.316955,-92.705098
M-299.408019,18.837156L271.448116,-127.733787
M-299.408019,18.837156L253.298378,-160.748038
M-299.408019,18.837156L231.153973,-191.227197
M-299.408019,18.837156L205.364132,-218.690588
M-299.408019,18.837156L176.335576,-242.705098
M-299.408019,18.837156L144.526102,-262.892004
M-299.408019,18.837156L110.437366,-278.932946
M-299.408019,18.837156L74.606966,-290.574948
M-299.408019,18.837156L37.599970,-297.634410
M-294.686175,56.214394L-285.316955,92.705098
M-294.686175,56.214394L-271.448116,127.733787
M-294.686175,56.214394L-253.298378,160.748038
M-294.686175,56.214394L-231.153973,191.227197
M-294.686175,56.214394L-205.364132,218.690588
M-294.686175,56.214394L-176.335576,242.705098
M-294.686175,56.214394L-144.526102,262.892004
M-294.686175,56.214394L-110.437366,278.932946
M-294.686175,56.214394L-74.606966,290.574948
M-294.686175,56.214394L-37.599970,297.634410
M-294.686175,56.214394L-0.000000,300.000000
M-294.686175,56.214394L37.599970,297.634410
M-294.686175,56.214394L74.606966,290.574948
M-294.686175,56.214394L110.437366,278.932946
M-294.686175,56.214394L144.526102,262.892004
M-294.686175,56.214394L176.335576,242.705098
M-294.686175,56.214394L205.364132,218.690588
M-294.686175,56.214394L231.153973,191.227197
M-294.686175,56.214394L253.298378,160.748038
M-294.686175,56.214394L271.448116,127.733787
M-294.686175,56.214394L285.316955,92.705098
M-294.686175,56.214394L294.686175,56.214394
M-294.686175,56.214394L299.408019,18.837156
M-294.686175,56.214394L299.408019,-18.837156
M-294.686175,56.214394L294.686175,-56.214394
M-294.686175,56.214394L285.316955,-92.705098
M-294.686175,56.214394L271.448116,-127.733787
M-294.686175,56.214394L253.298378,-160.748038
M-294.686175,56.214394L231.153973,-191.227197
M-294.686175,56.214394L205.364132,-218.690588
M-294.686175,56.214394L176.335576,-242.705098
M-294.686175,56.214394L144.526102,-262.892004
M-294.686175,56.214394L110.437366,-278.932946
M-294.686175,56.214394L74.606966,-290.574948
M-294.686175,56.214394L37.599970,-297.634410
M-285.316955,92.705098L-271.448116,127.733787
M-285.316955,92.705098L-253.298378,160.748038
M-285.316955,92.705098L-231.153973,191.227197
M-285.316955,92.705098L-205.364132,218.690588
M-285.316955,92.705098L-176.335576,242.705098
M-285.316955,92.705098L-144.526102,262.892004
M-285.316955,92.705098L-110.437366,278.932946
M-285.316955,92.705098L-74.606966,290.574948
M-285.316955,92.705098L-37.599970,297.634410
M-285.316955,92.705098L-0.000000,300.000000
M-285.316955,92.705098L37.599970,297.634410
M-285.316955,92.705098L74.606966,290.574948
M-285.316955,92.705098L110.437366,278.932946
M-285.316955,92.705098L144.526102,262.892004
M-285.316955,92.705098L176.335576,242.705098
M-285.316955,92.705098L205.364132,218.690588
M-285.316955,92.705098L231.153973,191.227197
M-285.316955,92.705098L253.298378,160.748038
M-285.316955,92.705098L271.448116,127.733787
M-285.316955,92.705098L285.316955,92.705098
M-285.316955,92.705098L294.686175,56.214394
M-285.316955,92.705098L299.408019,18.837156
M-285.316955,92.705098L299.408019,-18.837156
M-285.316955,92.705098L294.686175,-56.214394
M-285.316955,92.705098L285.316955,-92.705098
M-285.316955,92.705098L271.448116,-127.733787
M-285.316955,92.705098L253.298378,-160.748038
M-285.316955,92.705098L231.153973,-191.227197
M-285.316955,92.705098L205.364132,-218.690588
M-285.316955,92.705098L176.335576,-242.705098
M-285.316955,92.705098L144.526102,-262.892004
M-285.316955,92.705098L110.437366,-278.932946
M-285.316955,92.705098L74.606966,-290.574948
M-285.316955,92.705098L37.599970,-297.634410
M-271.448116,127.733787L-253.298378,160.748038
M-271.448116,127.733787L-231.153973,191.227197
M-271.448116,127.733787L-205.364132,218.690588
M-271.448116,127.733787L-176.335576,242.705098
M-271.448116,127.733787L-144.526102,262.892004
M-271.448116,127.733787L-110.437366,278.932946
M-271.448116,127.733787L-74.606966,290.574948
M-271.448116,127.733787L-37.599970,297.634410
M-271.448116,127.733787L-0.000000,300.000000
M-271.448116,127.733787L37.599970,297.634410
M-271.448116,127.733787L74.606966,290.574948
M-271.448116,127.733787L110.437366,278.932946
M-271.448116,127.733787L144.526102,262.892004
M-271.448116,127.733787L176.335576,242.705098
M-271.448116,127.733787L205.364132,218.690588
M-271.448116,127.733787L231.153973,191.227197
M-271.448116,127.733787L253.298378,160.748038
M-271.448116,127.733787L271.448116,127.733787
M-271.448116,127.733787L285.316955,92.705098
M-271.448116,127.733787L294.686175,56.214394
M-271.448116,127.733787L299.408019,18.837156
M-271.448116,127.733787L299.408019,-18.837156
M-271.448116,127.733787L294.686175,-56.214394
M-271.448116,127.733787L285.316955,-92.705098
M-271.448116,127.733787L271.448116,-127.733787
M-271.448116,127.733787L253.298378,-160.748038
M-271.448116,127.733787L231.153973,-191.227197
M-271.448116,127.733787L205.364132,-218.690588
M-271.448116,127.733787L176.335576,-242.705098
M-271.448116,127.733787L144.526102,-262.892004
M-271.448116,127.733787L110.437366,-278.932946
M-271.448116,127.733787L74.606966,-290.574948
M-271.448116,127.733787L37.599970,-297.634410
M-253.298378,160.748038L-231.153973,191.227197
M-253.298378,160.748038L-205.364132,218.690588
M-253.298378,160.748038L-176.335576,242.705098
M-253.298378,160.748038L-144.526102,262.892004
M-253.298378,160.748038L-110.437366,278.932946
M-253.298378,160.748038L-74.606966,290.574948
M-253.298378,160.748038L-37.599970,297.634410
M-253.298378,160.748038L-0.000000,300.000000
M-253.298378,160.748038L37.599970,297.634410
M-253.298378,160.748038L74.606966,290.574948
M-253.298378,160.748038L110.437366,278.932946
M-253.298378,160.748038L144.526102,262.892004
M-253.298378,160.748038L176.335576,242.705098
M-253.298378,160.748038L205.364132,218.690588
M-253.298378,160.748038L231.153973,191.227197
M-253.298378,160.748038L253.298378,160.748038
M-253.298378,160.748038L271.448116,127.733787
M-253.298378,160.748038L285.316955,92.705098
M-253.298378,160.748038L294.686175,56.214394
M-253.298378,160.748038L299.408019,18.837156
M-253.298378,160.748038L299.408019,-18.837156
M-253.298378,160.748038L294.686175,-56.214394
M-253.298378,160.748038L285.316955,-92.705098
M-253.298378,160.748038L271.448116,-127.733787
M-253.298378,160.748038L253.298378,-160.748038
M-253.298378,160.748038L231.153973,-191.227197
M-253.298378,160.748038L205.364132,-218.690588
M-253.298378,160.748038L176.335576,-242.705098
M-253.298378,160.748038L144.526102,-262.892004
M-253.298378,160.748038L110.437366,-278.932946
M-253.298378,160.748038L74.606966,-290.574948
M-253.298378,160.748038L37.599970,-297.634410
M-231.153973,191.227197L-205.364132,218.690588
M-231.153973,191.227197L-176.335576,242.705098
M-231.153973,191.227197L-144.526102,262.892004
M-231.153973,191.227197L-110.437366,278.932946
M-231.153973,191.227197L-74.606966,290.574948
M-231.153973,191.227197L-37.599970,297.634410
M-231.153973,191.227197L-0.000000,300.000000
M-231.153973,191.227197L37.599970,297.634410
M-231.153973,191.227197L74.606966,290.574948
M-231.153973,191.227197L110.437366,278.932946
M-231.153973,191.227197L144.526102,262.892004
M-231.153973,191.227197L176.335576,242.705098
M-231.153973,191.227197L205.364132,218.690588
M-231.153973,191.227197L231.153973,191.227197
M-231.153973,191.227197L253.298378,160.748038
M-231.153973,191.227197L271.448116,127.733787
M-231.153973,191.227197L285.316955,92.705098
M-231.153973,191.227197L294.686175,56.214394
M-231.153973,191.227197L299.408019,18.837156
M-231.153973,191.227197L299.408019,-18.837156
M-231.153973,191.227197L294.686175,-56.214394
M-231.153973,191.227197L285.316955,-92.705098
M-231.153973,191.227197L271.448116,-127.733787
M-231.153973,191.227197L253.298378,-160.748038
M-231.153973,191.227197L231.153973,-191.227197
M-231.153973,191.227197L205.364132,-218.690588
M-231.153973,191.227197L176.335576,-242.705098
M-231.153973,191.227197L144.526102,-262.892004
M-231.153973,191.227197L110.437366,-278.932946
M-231.153973,191.227197L74.606966,-290.574948
M-231.153973,191.227197L37.599970,-297.634410
M-205.364132,218.690588L-176.335576,242.705098
M-205.364132,218.690588L-144.526102,262.892004
M-205.364132,218.690588L-110.437366,278.932946
M-205.364132,218.690588L-74.606966,290.574948
M-205.364132,218.690588L-37.599970,297.634410
M-205.364132,218.690588L-0.000000,300.000000
M-205.364132,218.690588L37.599970,297.634410
M-205.364132,218.690588L74.606966,290.574948
M-205.364132,218.690588L110.437366,278.932946
M-205.364132,218.690588L144.526102,262.892004
M-205.364132,218.690588L176.335576,242.705098
M-205.364132,218.690588L205.364132,218.690588
M-205.364132,218.690588L231.153973,191.227197
M-205.364132,218.690588L253.298378,160.748038
M-205.364132,218.690588L271.448116,127.733787
M-205.364132,218.690588L285.316955,92.705098
M-205.364132,218.690588L294.686175,56.214394
M-205.364132,218.690588L299.408019,18.837156
M-205.364132,218.690588L299.408019,-18.837156
M-205.364132,218.690588L294.686175,-56.214394
M-205.364132,218.690588L285.316955,-92.705098
M-205.364132,218.690588L271.448116,-127.733787
M-205.364132,218.690588L253.298378,-160.748038
M-205.364132,218.690588L231.153973,-191.227197
M-205.364132,218.690588L205.364132,-218.690588
M-205.364132,218.690588L176.335576,-242.705098
M-205.364132,218.690588L144.526102,-262.892004
M-205.364132,218.690588L110.437366,-278.932946
M-205.364132,218.690588L74.606966,-290.574948
M-205.364132,218.690588L37.599970,-297.634410
M-176.335576,242.705098L-144.526102,262.892004
M-176.335576,242.705098L-110.437366,278.932946
M-176.335576,242.705098L-74.606966,290.574948
M-176.335576,242.705098L-37.599970,297.634410
M-176.335576,242.705098L-0.000000,300.000000
M-176.335576,242.705098L37.599970,297.634410
M-176.335576,242.705098L74.606966,290.574948
M-176.335576,242.705098L110.437366,278.932946
M-176.335576,242.705098L144.526102,262.892004
M-176.335576,242.705098L176.335576,242.705098
M-176.335576,242.705098L205.364132,218.690588
M-176.335576,242.705098L231.153973,191.227197
M-176.335576,242.705098L253.298378,160.748038
M-176.335576,242.705098L271.448116,127.733787
M-176.335576,242.705098L285.316955,92.705098
M-176.335576,242.705098L294.686175,56.214394
M-176.335576,242.705098L299.408019,18.837156
M-176.335576,242.705098L299.408019,-18.837156
M-176.335576,242.705098L294.686175,-56.214394
M-176.335576,242.705098L285.316955,-92.705098
M-176.335576,242.705098L271.448116,-127.733787
M-176.335576,242.705098L253.298378,-160.748038
M-176.335576,242.705098L231.153973,-191.227197
M-176.335576,242.705098L205.364132,-218.690588
M-176.335576,242.705098L176.335576,-242.705098
M-176.335576,242.705098L144.526102,-262.892004
M-176.335576,242.705098L110.437366,-278.932946
M-176.335576,242.705098L74.606966,-290.574948
M-176.335576,242.705098L37.599970,-297.634410
M-144.526102,262.892004L-110.437366,278.932946
M-144.526102,262.892004L-74.606966,290.574948
M-144.526102,262.892004L-37.599970,297.634410
M-144.526102,262.892004L-0.000000,300.000000
M-144.526102,262.892004L37.599970,297.634410
M-144.526102,262.892004L74.606966,290.574948
M-144.526102,262.892004L110.437366,278.932946
M-144.526102,262.892004L144.526102,262.892004
M-144.526102,262.892004L176.335576,242.705098
M-144.526102,262.892004L205.364132,218.690588
M-144.526102,262.892004L231.153973,191.227197
M-144.526102,262.892004L253.298378,160.748038
M-144.526102,262.892004L271.448116,127.733787
M-144.526102,262.892004L285.316955,92.705098
M-144.526102,262.892004L294.686175,56.214394
M-144.526102,262.892004L299.408019,18.837156
M-144.526102,262.892004L299.408019,-18.837156
M-144.526102,262.892004L294.686175,-56.214394
M-144.526102,262.892004L285.316955,-92.705098
M-144.526102,262.892004L271.448116,-127.733787
M-144.526102,262.892004L253.298378,-160.748038
M-144.526102,262.892004L231.153973,-191.227197
M-144.526102,262.892004L205.364132,-218.690588
M-144.526102,262.892004L176.335576,-242.705098
M-144.526102,262.892004L144.526102,-262.892004
M-144.526102,262.892004L110.437366,-278.932946
M-144.526102,262.892004L74.606966,-290.574948
M-144.526102,262.892004L37.599970,-297.634410
M-110.437366,278.932946L-74.606966,290.574948
M-110.437366,278.932946L-37.599970,297.634410
M-110.437366,278.932946L-0.000000,300.000000
M-110.437366,278.932946L37.599970,297.634410
M-110.437366,278.932946L74.606966,290.574948
M-110.437366,278.932946L110.437366,278.932946
M-110.437366,278.932946L144.526102,262.892004
M-110.437366,278.932946L176.335576,242.705098
M-110.437366,278.932946L205.364132,218.690588
M-110.437366,278.932946L231.153973,191.227197
M-110.437366,278.932946L253.298378,160.748038
M-110.437366,278.932946L271.448116,127.733787
M-110.437366,278.932946L285.316955,92.705098
M-110.437366,278.932946L294.686175,56.214394
M-110.437366,278.932946L299.408019,18.837156
M-110.437366,278.932946L299.408019,-18.837156
M-110.437366,278.932946L294.686175,-56.214394
M-110.437366,278.932946L285.316955,-92.705098
M-110.437366,278.932946L271.448116,-127.733787
M-110.437366,278.932946L253.298378,-160.748038
M-110.437366,278.932946L231.153973,-191.227197
M-110.437366,278.932946L205.364132,-218.690588
M-110.437366,278.932946L176.335576,-242.705098
M-110.437366,278.932946L144.526102,-262.892004
M-110.437366,278.932946L110.437366,-278.932946
M-110.437366,278.932946L74.606966,-290.574948
M-110.437366,278.932946L37.599970,-297.634410
M-74.606966,290.574948L-37.599970,297.634410
M-74.606966,290.574948L-0.000000,300.000000
M-74.606966,290.574948L37.599970,297.634410
M-74.606966,290.574948L74.606966,290.574948
M-74.606966,290.574948L110.437366,278.932946
M-74.606966,290.574948L144.526102,262.892004
M-74.606966,290.574948L176.335576,242.705098
M-74.606966,290.574948L205.364132,218.690588
M-74.606966,290.574948L231.153973,191.227197
M-74.606966,290.574948L253.298378,160.748038
M-74.606966,290.574948L271.448116,127.733787
M-74.606966,290.574948L285.316955,92.705098
M-74.606966,290.574948L294.686175,56.214394
M-74.606966,290.574948L299.408019,18.837156
M-74.606966,290.574948L299.408019,-18.837156
M-74.606966,290.574948L294.686175,-56.214394
M-74.606966,290.574948L285.316955,-92.705098
M-74.606966,290.574948L271.448116,-127.733787
M-74.606966,290.574948L253.298378,-160.748038
M-74.606966,290.574948L231.153973,-191.227197
M-74.606966,290.574948L205.364132,-218.690588
M-74.606966,290.574948L176.335576,-242.705098
M-74.606966,290.574948L144.526102,-262.892004
M-74.606966,290.574948L110.437366,-278.932946
M-74.606966,290.574948L74.606966,-290.574948
M-74.606966,290.574948L37.599970,-297.634410
M-37.599970,297.634410L-0.000000,300.000000
M-37.599970,297.634410L37.599970,297.634410
M-37.599970,297.634410L74.606966,290.574948
M-37.599970,297.634410L110.437366,278.932946
M-37.599970,297.634410L144.526102,262.892004
M-37.599970,297.634410L176.335576,242.705098
M-37.599970,297.634410L205.364132,218.690588
M-37.599970,297.634410L231.153973,191.227197
M-37.599970,297.634410L253.298378,160.748038
M-37.599970,297.634410L271.448116,127.733787
M-37.599970,297.634410L285.316955,92.705098
M-37.599970,297.634410L294.686175,56.214394
M-37.599970,297.634410L299.408019,18.837156
M-37.599970,297.634410L299.408019,-18.837156
M-37.599970,297.634410L294.686175,-56.214394
M-37.599970,297.634410L285.316955,-92.705098
M-37.599970,297.634410L271.448116,-127.733787
M-37.599970,297.634410L253.298378,-160.748038
M-37.599970,297.634410L231.153973,-191.227197
M-37.599970,297.634410L205.364132,-218.690588
M-37.599970,297.634410L176.335576,-242.705098
M-37.599970,297.634410L144.526102,-262.892004
M-37.599970,297.634410L110.437366,-278.932946
M-37.599970,297.634410L74.606966,-290.574948
M-37.599970,297.634410L37.599970,-297.634410
M-0.000000,300.000000L37.599970,297.634410
M-0.000000,300.000000L74.606966,290.574948
M-0.000000,300.000000L110.437366,278.932946
M-0.000000,300.000000L144.526102,262.892004
M-0.000000,300.000000L176.335576,242.705098
M-0.000000,300.000000L205.364132,218.690588
M-0.000000,300.000000L231.153973,191.227197
M-0.000000,300.000000L253.298378,160.748038
M-0.000000,300.000000L271.448116,127.733787
M-0.000000,300.000000L285.316955,92.705098
M-0.000000,300.000000L294.686175,56.214394
M-0.000000,300.000000L299.408019,18.837156
M-0.000000,300.000000L299.408019,-18.837156
M-0.000000,300.000000L294.686175,-56.214394
M-0.000000,300.000000L285.316955,-92.705098
M-0.000000,300.000000L271.448116,-127.733787
M-0.000000,300.000000L253.298378,-160.748038
M-0.000000,300.000000L231.153973,-191.227197
M-0.000000,300.000000L205.364132,-218.690588
M-0.000000,300.000000L176.335576,-242.705098
M-0.000000,300.000000L144.526102,-262.892004
M-0.000000,300.000000L110.437366,-278.932946
M-0.000000,300.000000L74.606966,-290.574948
M-0.000000,300.000000L37.599970,-297.634410
M37.599970,297.634410L74.606966,290.574948
M37.599970,297.634410L110.437366,278.932946
M37.599970,297.634410L144.526102,262.892004
M37.599970,297.634410L176.335576,242.705098
M37.599970,297.634410L205.364132,218.690588
M37.599970,297.634410L231.153973,191.227197
M37.599970,297.634410L253.298378,160.748038
M37.599970,297.634410L271.448116,127.733787
M37.599970,297.634410L285.316955,92.705098
M37.599970,297.634410L294.686175,56.214394
M37.599970,297.634410L299.408019,18.837156
M37.599970,297.634410L299.408019,-18.837156
M37.599970,297.634410L294.686175,-56.214394
M37.599970,297.634410L285.316955,-92.705098
M37.599970,297.634410L271.448116,-127.733787
M37.599970,297.634410L253.298378,-160.748038
M37.599970,297.634410L231.153973,-191.227197
M37.599970,297.634410L205.364132,-218.690588
M37.599970,297.634410L176.335576,-242.705098
M37.599970,297.634410L144.526102,-262.892004
M37.599970,297.634410L110.437366,-278.932946
M37.599970,297.634410L74.606966,-290.574948
M37.599970,297.634410L37.599970,-297.634410
M74.606966,290.574948L110.437366,278.932946
M74.606966,290.574948L144.526102,262.892004
M74.606966,290.574948L176.335576,242.705098
M74.606966,290.574948L205.364132,218.690588
M74.606966,290.574948L231.153973,191.227197
M74.606966,290.574948L253.298378,160.748038
M74.606966,290.574948L271.448116,127.733787
M74.606966,290.574948L285.316955,92.705098
M74.606966,290.574948L294.686175,56.214394
M74.606966,290.574948L299.408019,18.837156
M74.606966,290.574948L299.408019,-18.837156
M74.606966,290.574948L294.686175,-56.214394
M74.606966,290.574948L285.316955,-92.705098
M74.606966,290.574948L271.448116,-127.733787
M74.606966,290.574948L253.298378,-160.748038
M74.606966,290.574948L231.153973,-191.227197
M74.606966,290.574948L205.364132,-218.690588
M74.606966,290.574948L176.335576,-242.705098
M74.606966,290.574948L144.526102,-262.892004
M74.606966,290.574948L110.437366,-278.932946
M74.606966,290.574948L74.606966,-290.574948
M74.606966,290.574948L37.599970,-297.634410
M110.437366,278.932946L144.526102,262.892004
M110.437366,278.932946L176.335576,242.705098
M110.437366,278.932946L205.364132,218.690588
M110.437366,278.932946L231.153973,191.227197
M110.437366,278.932946L253.298378,160.748038
M110.437366,278.932946L271.448116,127.733787
M110.437366,278.932946L285.316955,92.705098
M110.437366,278.932946L294.686175,56.214394
M110.437366,278.932946L299.408019,18.837156
M110.437366,278.932946L299.408019,-18.837156
M110.437366,278.932946L294.686175,-56.214394
M110.437366,278.932946L285.316955,-92.705098
M110.437366,278.932946L271.448116,-127.733787
M110.437366,278.932946L253.298378,-160.748038
M110.437366,278.932946L231.153973,-191.227197
M110.437366,278.932946L205.364132,-218.690588
M110.437366,278.932946L176.335576,-242.705098
M110.437366,278.932946L144.526102,-262.892004
M110.437366,278.932946L110.437366,-278.932946
M110.437366,278.932946L74.606966,-290.574948
M110.437366,278.932946L37.599970,-297.634410
M144.526102,262.892004L176.335576,242.705098
M144.526102,262.892004L205.364132,218.690588
M144.526102,262.892004L231.153973,191.227197
M144.526102,262.892004L253.298378,160.748038
M144.526102,262.892004L271.448116,127.733787
M144.526102,262.892004L285.316955,92.705098
M144.526102,262.892004L294.686175,56.214394
M144.526102,262.892004L299.408019,18.837156
M144.526102,262.892004L299.408019,-18.837156
M144.526102,262.892004L294.686175,-56.214394
M144.526102,262.892004L285.316955,-92.705098
M144.526102,262.892004L271.448116,-127.733787
M144.526102,262.892004L253.298378,-160.748038
M144.526102,262.892004L231.153973,-191.227197
M144.526102,262.892004L205.364132,-218.690588
M144.526102,262.892004L176.335576,-242.705098
M144.526102,262.892004L144.526102,-262.892004
M144.526102,262.892004L110.437366,-278.932946
M144.526102,262.892004L74.606966,-290.574948
M144.526102,262.892004L37.599970,-297.634410
M176.335576,242.705098L205.364132,218.690588
M176.335576,242.705098L231.153973,191.227197
M176.335576,242.705098L253.298378,160.748038
M176.335576,242.705098L271.448116,127.733787
M176.335576,242.705098L285.316955,92.705098
M176.335576,242.705098L294.686175,56.214394
M176.335576,242.705098L299.408019,18.837156
M176.335576,242.705098L299.408019,-18.837156
M176.335576,242.705098L294.686175,-56.214394
M176.335576,242.705098L285.316955,-92.705098
M176.335576,242.705098L271.448116,-127.733787
M176.335576,242.705098L253.298378,-160.748038
M176.335576,242.705098L231.153973,-191.227197
M176.335576,242.705098L205.364132,-218.690588
M176.335576,242.705098L176.335576,-242.705098
M176.335576,242.705098L144.526102,-262.892004
M176.335576,242.705098L110.437366,-278.932946
M176.335576,242.705098L74.606966,-290.574948
M176.335576,242.705098L37.599970,-297.634410
M205.364132,218.690588L231.153973,191.227197
M205.364132,218.690588L253.298378,160.748038
M205.364132,218.690588L271.448116,127.733787
M205.364132,218.690588L285.316955,92.705098
M205.364132,218.690588L294.686175,56.214394
M205.364132,218.690588L299.408019,18.837156
M205.364132,218.690588L299.408019,-18.837156
M205.364132,218.690588L294.686175,-56.214394
M205.364132,218.690588L285.316955,-92.705098
M205.364132,218.690588L271.448116,-127.733787
M205.364132,218.690588L253.298378,-160.748038
M205.364132,218.690588L231.153973,-191.227197
M205.364132,218.690588L205.364132,-218.690588
M205.364132,218.690588L176.335576,-242.705098
M205.364132,218.690588L144.526102,-262.892004
M205.364132,218.690588L110.437366,-278.932946
M205.364132,218.690588L74.606966,-290.574948
M205.364132,218.690588L37.599970,-297.634410
M231.153973,191.227197L253.298378,160.748038
M231.153973,191.227197L271.448116,127.733787
M231.153973,191.227197L285.316955,92.705098
M231.153973,191.227197L294.686175,56.214394
M231.153973,191.227197L299.408019,18.837156
M231.153973,191.227197L299.408019,-18.837156
M231.153973,191.227197L294.686175,-56.214394
M231.153973,191.227197L285.316955,-92.705098
M231.153973,191.227197L271.448116,-127.733787
M231.153973,191.227197L253.298378,-160.748038
M231.153973,191.227197L231.153973,-191.227197
M231.153973,191.227197L205.364132,-218.690588
M231.153973,191.227197L176.335576,-242.705098
M231.153973,191.227197L144.526102,-262.892004
M231.153973,191.227197L110.437366,-278.932946
M231.153973,191.227197L74.606966,-290.574948
M231.153973,191.227197L37.599970,-297.634410
M253.298378,160.748038L271.448116,127.733787
M253.298378,160.748038L285.316955,92.705098
M253.298378,160.748038L294.686175,56.214394
M253.298378,160.748038L299.408019,18.837156
M253.298378,160.748038L299.408019,-18.837156
M253.298378,160.748038L294.686175,-56.214394
M253.298378,160.748038L285.316955,-92.705098
M253.298378,160.748038L271.448116,-127.733787
M253.298378,160.748038L253.298378,-160.748038
M253.298378,160.748038L231.153973,-191.227197
M253.298378,160.748038L205.364132,-218.690588
M253.298378,160.748038L176.335576,-242.705098
M253.298378,160.748038L144.526102,-262.892004
M253.298378,160.748038L110.437366,-278.932946
M253.298378,160.748038L74.606966,-290.574948
M253.298378,160.748038L37.599970,-297.634410
M271.448116,127.733787L285.316955,92.705098
M271.448116,127.733787L294.686175,56.214394
M271.448116,127.733787L299.408019,18.837156
M271.448116,127.733787L299.408019,-18.837156
M271.448116,127.733787L294.686175,-56.214394
M271.448116,127.733787L285.316955,-92.705098
M271.448116,127.733787L271.448116,-127.733787
M271.448116,127.733787L253.298378,-160.748038
M271.448116,127.733787L231.153973,-191.227197
M271.448116,127.733787L205.364132,-218.690588
M271.448116,127.733787L176.335576,-242.705098
M271.448116,127.733787L144.526102,-262.892004
M271.448116,127.733787L110.437366,-278.932946
M271.448116,127.733787L74.606966,-290.574948
M271.448116,127.733787L37.599970,-297.634410
M285.316955,92.705098L294.686175,56.214394
M285.316955,92.705098L299.408019,18.837156
M285.316955,92.705098L299.408019,-18.837156
M285.316955,92.705098L294.686175,-56.214394
M285.316955,92.705098L285.316955,-92.705098
M285.316955,92.705098L271.448116,-127.733787
M285.316955,92.705098L253.298378,-160.748038
M285.316955,92.705098L231.153973,-191.227197
M285.316955,92.705098L205.364132,-218.690588
M285.316955,92.705098L176.335576,-242.705098
M285.316955,92.705098L144.526102,-262.892004
M285.316955,92.705098L110.437366,-278.932946
M285.316955,92.705098L74.606966,-290.574948
M285.316955,92.705098L37.599970,-297.634410
M294.686175,56.214394L299.408019,18.837156
M294.686175,56.214394L299.408019,-18.837156
M294.686175,56.214394L294.686175,-56.214394
M294.686175,56.214394L285.316955,-92.705098
M294.686175,56.214394L271.448116,-127.733787
M294.686175,56.214394L253.298378,-160.748038
M294.686175,56.214394L231.153973,-191.227197
M294.686175,56.214394L205.364132,-218.690588
M294.686175,56.214394L176.335576,-242.705098
M294.686175,56.214394L144.526102,-262.892004
M294.686175,56.214394L110.437366,-278.932946
M294.686175,56.214394L74.606966,-290.574948
M294.686175,56.214394L37.599970,-297.634410
M299.408019,18.837156L299.408019,-18.837156
M299.408019,18.837156L294.686175,-56.214394
M299.408019,18.837156L285.316955,-92.705098
M299.408019,18.837156L271.448116,-127.733787
M299.408019,18.837156L253.298378,-160.748038
M299.408019,18.837156L231.153973,-191.227197
M299.408019,18.837156L205.364132,-218.690588
M299.408019,18.837156L176.335576,-242.705098
M299.408019,18.837156L144.526102,-262.892004
M299.408019,18.837156L110.437366,-278.932946
M299.408019,18.837156L74.606966,-290.574948
M299.408019,18.837156L37.599970,-297.634410
M299.408019,-18.837156L294.686175,-56.214394
M299.408019,-18.837156L285.316955,-92.705098
M299.408019,-18.837156L271.448116,-127.733787
M299.408019,-18.837156L253.298378,-160.748038
M299.408019,-18.837156L231.153973,-191.227197
M299.408019,-18.837156L205.364132,-218.690588
M299.408019,-18.837156L176.335576,-242.705098
M299.408019,-18.837156L144.526102,-262.892004
M299.408019,-18.837156L110.437366,-278.932946
M299.408019,-18.837156L74.606966,-290.574948
M299.408019,-18.837156L37.599970,-297.634410
M294.686175,-56.214394L285.316955,-92.705098
M294.686175,-56.214394L271.448116,-127.733787
M294.686175,-56.214394L253.298378,-160.748038
M294.686175,-56.214394L231.153973,-191.227197
M294.686175,-56.214394L205.364132,-218.690588
M294.686175,-56.214394L176.335576,-242.705098
M294.686175,-56.214394L144.526102,-262.892004
M294.686175,-56.214394L110.437366,-278.932946
M294.686175,-56.214394L74.606966,-290.574948
M294.686175,-56.214394L37.599970,-297.634410
M285.316955,-92.705098L271.448116,-127.733787
M285.316955,-92.705098L253.298378,-160.748038
M285.316955,-92.705098L231.153973,-191.227197
M285.316955,-92.705098L205.364132,-218.690588
M285.316955,-92.705098L176.335576,-242.705098
M285.316955,-92.705098L144.526102,-262.892004
M285.316955,-92.705098L110.437366,-278.932946
M285.316955,-92.705098L74.606966,-290.574948
M285.316955,-92.705098L37.599970,-297.634410
M271.448116,-127.733787L253.298378,-160.748038
M271.448116,-127.733787L231.153973,-191.227197
M271.448116,-127.733787L205.364132,-218.690588
M271.448116,-127.733787L176.335576,-242.705098
M271.448116,-127.733787L144.526102,-262.892004
M271.448116,-127.733787L110.437366,-278.932946
M271.448116,-127.733787L74.606966,-290.574948
M271.448116,-127.733787L37.599970,-297.634410
M253.298378,-160.748038L231.153973,-191.227197
M253.298378,-160.748038L205.364132,-218.690588
M253.298378,-160.748038L176.335576,-242.705098
M253.298378,-160.748038L144.526102,-262.892004
M253.298378,-160.748038L110.437366,-278.932946
M253.298378,-160.748038L74.606966,-290.574948
M253.298378,-160.748038L37.599970,-297.634410
M231.153973,-191.227197L205.364132,-218.690588
M231.153973,-191.227197L176.335576,-242.705098
M231.153973,-191.227197L144.526102,-262.892004
M231.153973,-191.227197L110.437366,-278.932946
M231.153973,-191.227197L74.606966,-290.574948
M231.153973,-191.227197L37.599970,-297.634410
M205.364132,-218.690588L176.335576,-242.705098
M205.364132,-218.690588L144.526102,-262.892004
M205.364132,-218.690588L110.437366,-278.932946
M205.364132,-218.690588L74.606966,-290.574948
M205.364132,-218.690588L37.599970,-297.634410
M176.335576,-242.705098L144.526102,-262.892004
M176.335576,-242.705098L110.437366,-278.932946
M176.335576,-242.705098L74.606966,-290.574948
M176.335576,-242.705098L37.599970,-297.634410
M144.526102,-262.892004L110.437366,-278.932946
M144.526102,-262.892004L74.606966,-290.574948
M144.526102,-262.892004L37.599970,-297.634410
M110.437366,-278.932946L74.606966,-290.574948
M110.437366,-278.932946L37.599970,-297.634410
M74.606966,-290.574948L37.599970,-297.634410
">   <animateTransform attributeName="transform"
                          attributeType="XML"
                          type="rotate"
                          from="0"
                          to="360"
                          dur="60s"
                          repeatCount="indefinite"/>

</path>
</svg>
