<?xml version="1.0" encoding="UTF-8"?>
<svg xmlns="http://www.w3.org/2000/svg" 
xmlns:xlink="http://www.w3.org/1999/xlink"
version="1.2"
width="500" height="500"
viewBox="-500 -500 1000 1000" preserveAspectRatio="xMinYMin meet"
>
<title>Know, Dare, Keep Silent</title>
<desc>As seen on the opening pages of all Order of Christian
Mystics books. This version hand-coded as SVG by Richard Todd
in 2021.</desc>

<style type="text/css">
<![CDATA[
    #my-rect { fill: blue; }
]]>
</style>

<defs>
  <polygon id="bigstar" points="
         60,0 
         18.566940020905,13.4896715401123
         18.5410196624968,57.0633909777092
         -7.09194002090504,21.8267470489738
         -48.5410196624968,35.2671151375484
         -22.95,0
         -48.5410196624969,-35.2671151375484
         -7.09194002090505,-21.8267470489738
         18.5410196624968,-57.0633909777092
         18.566940020905,-13.4896715401123
  " transform="rotate(-90) scale(0.9,0.9)">
     <desc>the stars around the image</desc>
  </polygon>

   <line id="upline" x1="0" x2="0" y1="0" y2="-300" />
   <g id="lineBundle" fill="none" stroke="black" stroke-width="4">
      <desc>the bundles of spreading lines</desc>
      <use xlink:href="#upline" transform="rotate(-5)" />
      <use xlink:href="#upline" transform="rotate(-7.5)" />
      <use xlink:href="#upline" transform="rotate(-2.5)" />
      <use xlink:href="#upline" transform="rotate(0)" />
      <use xlink:href="#upline" transform="rotate(2.5)" />
      <use xlink:href="#upline" transform="rotate(5)" />
      <use xlink:href="#upline" transform="rotate(7.5)" /> 
   </g>

   <mask id="innerTriMask">
      <desc>the mask stopping the line bundles</desc>
      <rect x="-210" y="-239" width="420" height="480"
            fill="black" stroke="none" />
      <use xlink:href="#innerTri" stroke="white" fill="white" />
   </mask>

</defs>

<g fill="none" stroke="black">
   <desc>The main structure</desc>
   <circle r="490" stroke-width="14" />

   <polygon stroke-width="20"
      points="0,-474 410.496,237 -410.496,237" />
   <polygon id="innerTri" stroke-width="7"
      points="0,-238 206.114,119 -206.114,119" />
</g>

<g fill="black" stroke="none"
   font-family="Times Roman, Times"  font-size="80"
>
   <desc>the triangle text</desc>
   <text text-anchor="middle" x="0" y="200">KEEP SILENT</text>
   <text text-anchor="middle" x="0" y="-200"
      dominant-baseline="hanging"
      transform="rotate(-60)">DARE</text>
   <text text-anchor="middle" x="0" y="-200"
      dominant-baseline="hanging"
      transform="rotate(60)">DO</text>
</g>

<g fill="none" stroke="black" stroke-width="8">
   <desc>the stars around</desc>
   <use xlink:href="#bigstar" transform="translate(0,360)" />
   <use xlink:href="#bigstar" transform="rotate(-120) translate(0,360) rotate(120)" />
   <use xlink:href="#bigstar" transform="rotate(120) translate(0,360) rotate(-120)" />
</g>

<g mask="url(#innerTriMask)">
   <desc>the line bundles</desc>
   <use xlink:href="#lineBundle" /> 
   <use xlink:href="#lineBundle" transform="rotate(30)" />
   <use xlink:href="#lineBundle" transform="rotate(-30)" />
   <use xlink:href="#lineBundle" transform="rotate(-120)" />
   <use xlink:href="#lineBundle" transform="rotate(120)" />
   <use xlink:href="#lineBundle" transform="rotate(-150)" />
   <use xlink:href="#lineBundle" transform="rotate(150)" />
</g>


<g mask="url(#innerTriMask)"> 
  <path fill="white" stroke="none" 
      d="
         M-130,0 a 130,85 0,0,1 260,0 z
         M -140,0 v10 C -35,83 35,83 125,20 v-20 z
      " >
      <desc>color the eye white</desc>
  </path>
  <g>
     <desc> the overall eye shape </desc>
     <path stroke="black" stroke-width="5" fill="black"
        d="M -124,-10 v-16 C -20,-90 20,-95 126,-9
           h10 l-16,-34
           C 26,-95 -20,-120 -140,-30 v 30 z
        "/>
     <path stroke="black" stroke-width="5" fill="black"
        d="M-101,0 L-107,-17 
           C-20,-75 20,-75 104,-6.5 l -5,10 h2 l 5,-10
           C21,-77 -21,-77 -140,0 z
        "/>
     <path stroke="black" stroke-width="5" fill="black"
        d="M-89,0 C -20,-53 20,-53 82,5  h22 l -12,-5
                  C 30,-63 -30,-63 -102,0 z
        "/>
     <path stroke="black" stroke-width="5" fill="black"
        d="M-89,0 C -20,53 20,53 74,5  h30 l -40,15
                  C 20,52 -30,52 -95,0 z
        "/>
     <path stroke="black" stroke-width="5" fill="black"
        d="M-140,10 C -35,83 35,83 125,20 l 7,2 v-5 l -5,-6
           C 35,83 -35,83 -135,0 h -15 z
        " />
     <path stroke="black" stroke-width="2" fill="black"
        d="M-94,21 C -20,62 20,62 79,30 l-1,-2 
           C 20,62 -20,62 -94,18 z
        " />
  </g>
  <g> 
     <desc> the iris/pupil</desc>
     <circle r="39" stroke="black" stroke-width="7" fill="white" />
     <circle r="19.5" stroke="black" stroke-width="1" fill="black" />
     <path stroke="black" stroke-width="7" fill="black"
        transform="rotate(35)"
        d="M6,38 a 39,39 0,0,0 0,-76 z
        " />
  </g>

</g>
<!-- vim: expandtab:sw=3
-->
</svg>
