<?xml version="1.0" encoding="UTF-8"?>
<svg xmlns="http://www.w3.org/2000/svg" version="1.2"
width="400" height="600"
viewBox="-174 -250 348 500" preserveAspectRatio="xMinYMin meet"
>
<title>BOTA Logo</title>
<desc>As seen on many BOTA items. Hand-coded SVG by Richard Todd 2021</desc>

<defs>
   <clipPath id="radiantClip">
      <desc>The radiating lines are cut off on the left and right</desc>
      <rect x="-154" y="-230" width="308" height="460" />
   </clipPath>

   <line id="lline" x1="0" x2="0" y1="80" y2="230">
      <desc>template for the long lines</desc>
   </line>
   <line id="mline" x1="0" x2="0" y1="80" y2="180">
      <desc>template for the medium lines</desc>
   </line>
   <line id="sline" x1="0" x2="0" y1="80" y2="130">
      <desc>template for the short lines</desc>
   </line>

   <polygon id="unitHex"
     vector-effect="non-scaling-stroke"
     stroke-width="1"
     points="0,1 0.8660254,0.5 0.8660254,-0.5 0,-1 
                 -0.8660254,-0.5 -0.8660254,0.5">
     <desc>The shape of the interior hexagram</desc>
   </polygon>

   <mask id="hexMask">
      <desc>This is the hole we want to cut out of the 
      central circle</desc>
      <rect x="-100" y="-100" width="200" height="200" fill="white" />
      <use href="#unitHex" transform="scale(53,53)" fill="black" />
   </mask>

</defs>

<g stroke-width="1">
   <g stroke="black" fill="none">
      <desc>the central disk</desc>
      <circle cx="0" cy="0" r="70" />
      <circle cx="0" cy="0" r="55" mask="url(#hexMask)" fill="black" />
      <line id="ltrdivider" x1="0" x2="0" y1="55" y2="70" transform="rotate(45)" />
      <use href="#ltrdivider" transform="rotate(90)" />
      <use href="#ltrdivider" transform="rotate(-90)" />
      <use href="#ltrdivider" transform="rotate(180)" />

      <line x1="0" x2="45.89935" y1="0" y2="-26.5" />
      <line x1="0" x2="0" y1="0" y2="53" />
      <line x1="0" x2="-45.89935" y1="0" y2="-26.5" />
   </g>

   <g stroke="black" fill="black"
      font-size="15" stroke-width="0.5" 
      font-family="Times New Roman, Times, serif"
      text-anchor="middle" dominant-baseline="middle"
      >
      <desc>The writing around the disc</desc>
      <text x="-62.5" y="0">A</text>
      <text x="62.5" y="0">O</text>
      <text x="0" y="-61.5">B</text>
      <text x="0" y="63.5">T</text>
   </g>

   <g stroke="black" fill="none" stroke-width="1.5"
      transform="translate(-23, 15.5) skewY(30) scale(1,1.2)"
   >
      <desc>Salt symbol</desc>
      <ellipse rx="4" ry="12" />
      <line x1="-4" x2="4" y1="0" y2="0" />
   </g>

   <g stroke="black" fill="none" stroke-width="1.5"
      transform="translate(23, 15.5) scale(1,1.2) skewY(-30)"
   >
      <desc>Sulphur symbol</desc>
      <polygon points="0,-12 4,0 -4,0" />
      <line x1="0" x2="0" y1="0" y2="12" />
      <line x1="-4" x2="4" y1="6" y2="6" />
   </g>

   <g stroke="black" fill="none" stroke-width="1.5"
      transform="translate(0,-25.5) scale(1.6,1)"
   >
      <desc>Mercury symbol</desc>
      <circle cx="0" cy="-3" r="5" />
      <line x1="0" x2="0" y1="2" y2="12" />
      <line x1="-4" x2="4" y1="6" y2="6" />
      <clipPath id="mercClip">
         <rect x="-7" y="-12.5" width="14" height="7" />
      </clipPath>
      <circle cx="0" cy="-13" r="5" clip-path="url(#mercClip)" />
   </g>

   <g stroke="black" clip-path="url(#radiantClip)">
      <desc>the radiating lines</desc>
      <use href="#lline" />
      <use href="#lline" transform="rotate(30)" />
      <use href="#lline" transform="rotate(60)" />
      <use href="#lline" transform="rotate(90)" />
      <use href="#lline" transform="rotate(-30)" />
      <use href="#lline" transform="rotate(-60)" />
      <use href="#lline" transform="rotate(-90)" />
      <use href="#lline" transform="rotate(-120)" />
      <use href="#lline" transform="rotate(-150)" />
      <use href="#lline" transform="rotate(180)" />
      <use href="#lline" transform="rotate(120)" />
      <use href="#lline" transform="rotate(150)" />
      <g transform="rotate(15)">
         <use href="#mline" />
         <use href="#mline" transform="rotate(30)" />
         <use href="#mline" transform="rotate(60)" />
         <use href="#mline" transform="rotate(90)" />
         <use href="#mline" transform="rotate(-30)" />
         <use href="#mline" transform="rotate(-60)" />
         <use href="#mline" transform="rotate(-90)" />
         <use href="#mline" transform="rotate(-120)" />
         <use href="#mline" transform="rotate(-150)" />
         <use href="#mline" transform="rotate(180)" />
         <use href="#mline" transform="rotate(120)" />
         <use href="#mline" transform="rotate(150)" />
      </g>
      <g transform="rotate(7.5)">
         <use href="#sline" />
         <use href="#sline" transform="rotate(30)" />
         <use href="#sline" transform="rotate(60)" />
         <use href="#sline" transform="rotate(90)" />
         <use href="#sline" transform="rotate(-30)" />
         <use href="#sline" transform="rotate(-60)" />
         <use href="#sline" transform="rotate(-90)" />
         <use href="#sline" transform="rotate(-120)" />
         <use href="#sline" transform="rotate(-150)" />
         <use href="#sline" transform="rotate(180)" />
         <use href="#sline" transform="rotate(120)" />
         <use href="#sline" transform="rotate(150)" />
      </g>
      <g transform="rotate(22.5)">
         <use href="#sline" />
         <use href="#sline" transform="rotate(30)" />
         <use href="#sline" transform="rotate(60)" />
         <use href="#sline" transform="rotate(90)" />
         <use href="#sline" transform="rotate(-30)" />
         <use href="#sline" transform="rotate(-60)" />
         <use href="#sline" transform="rotate(-90)" />
         <use href="#sline" transform="rotate(-120)" />
         <use href="#sline" transform="rotate(-150)" />
         <use href="#sline" transform="rotate(180)" />
         <use href="#sline" transform="rotate(120)" />
         <use href="#sline" transform="rotate(150)" />
      </g>
   </g>

</g>
<!-- vim: expandtab:sw=3
-->
</svg>
