<?xml version="1.0" encoding="UTF-8"?>
<svg xmlns="http://www.w3.org/2000/svg" version="1.2"
width="360" height="600"
viewBox="-600 -1000 1200 2000" preserveAspectRatio="xMinYMin meet"
>
<title>Prince Scale -- Golden Dawn</title>
<desc>This is a blank tree colored in the Golden-Dawn
Prince Scale.  
Color codes from:
https://sites.google.com/site/dairiel23/colour-scales-and-hex-codes/etz-chaim-colour-key
https://www.lelandra.com/tarotbook/TreeofLifeColors.htm
This version hand-coded by Richard Todd 2021</desc>

<style type="text/css">
<![CDATA[
    #my-rect { fill: blue; }
]]>
</style>

<defs>
   <circle id="sephira" r="122.407">
      <desc>A sephira circle</desc>
   </circle>

   <clipPath id="sephClip">
      <desc>for drawing Malkuth...</desc>
      <use href="#sephira" />
   </clipPath>

   <pattern id="blackFleckedGold" x="0" y="0" width="100" height="100"  patternUnits="userSpaceOnUse">
      <desc>for malkuth, generated with _helpers/flecks.py</desc>
      <rect x="0" y="0" width="100" height="100" fill="black" stroke="none" /> 
      <circle cx="86.66860414742217" cy="79.26953164425747" r="3.482576737830866" fill="gold" />
      <circle cx="20.794146938989833" cy="64.09555340037706" r="2.0501210214713157" fill="gold" />
      <circle cx="48.66823314448442" cy="55.029732161928145" r="2.7926123323038246" fill="gold" />
      <circle cx="66.6878204051359" cy="29.29884855754077" r="3.509787049826428" fill="gold" />
      <circle cx="35.313487953953604" cy="98.66299320151472" r="1.0650895659784299" fill="gold" />
      <circle cx="94.20378063631401" cy="60.59083361780342" r="1.766184170779718" fill="gold" />
      <circle cx="99.2032397277361" cy="80.11846893149355" r="0.42341455643208903" fill="gold" />
      <circle cx="84.9107359175723" cy="81.86675229292925" r="1.8226365373163111" fill="gold" />
      <circle cx="40.403246439799865" cy="83.39563465765032" r="1.6911600656429582" fill="gold" />
      <circle cx="96.76445097565454" cy="25.04674584581731" r="1.597388770690992" fill="gold" />
      <circle cx="56.07523356062397" cy="95.16262790772448" r="1.988960548006626" fill="gold" />
      <circle cx="48.62755902170567" cy="81.78340510467625" r="0.99918943590467" fill="gold" />
      <circle cx="83.38790891291531" cy="30.620323378284585" r="3.0318624637999494" fill="gold" />
      <circle cx="15.538492028984807" cy="4.665065484501863" r="1.3110331865961768" fill="gold" />
      <circle cx="58.24994007326054" cy="18.69587936255733" r="2.57893998903047" fill="gold" />
      <circle cx="44.49899764039304" cy="2.0740074139979137" r="2.6272975033381964" fill="gold" />
      <circle cx="97.47996568425157" cy="4.688206752210311" r="0.21442883840032678" fill="gold" />
      <circle cx="62.67575368485391" cy="87.85357208468372" r="0.9525671682411221" fill="gold" />
      <circle cx="28.837309190137393" cy="1.4507877724245999" r="1.5946843853378123" fill="gold" />
      <circle cx="88.66416061411766" cy="22.616138929500785" r="1.0816470129104214" fill="gold" />
      <circle cx="60.204785250308" cy="48.338200416796" r="3.0835775970332397" fill="gold" />
      <circle cx="89.31707888106799" cy="88.58997869223312" r="3.796616251690638" fill="gold" />
      <circle cx="70.2395715872436" cy="12.866737424593955" r="1.4965148012058593" fill="gold" />
      <circle cx="7.84725741584944" cy="71.88176401627015" r="1.3066055063397335" fill="gold" />
      <circle cx="44.07058276093424" cy="33.70971541766474" r="1.5070011050635084" fill="gold" />
      <circle cx="74.93557857524542" cy="20.458554617145953" r="1.7925888349490093" fill="gold" />
      <circle cx="53.358474962011414" cy="86.31259243875238" r="0.6878030188331801" fill="gold" />
      <circle cx="49.70024321281156" cy="73.89462361957911" r="3.9119912425088055" fill="gold" />
      <circle cx="59.07030930239263" cy="27.75571067179593" r="3.5896243652229844" fill="gold" />
      <circle cx="15.426739612616934" cy="41.034062869427146" r="2.0474484381488107" fill="gold" />
      <circle cx="61.80992430222011" cy="57.15744993457884" r="2.827574905966644" fill="gold" />
      <circle cx="51.25002209144799" cy="63.5485684339133" r="3.8204993556380846" fill="gold" />
      <circle cx="5.7175712149710956" cy="66.81422466789529" r="1.9082029251017052" fill="gold" />
      <circle cx="93.48477225413274" cy="88.90717874416319" r="1.6124805028806115" fill="gold" />
      <circle cx="57.961106406862605" cy="64.38553102294821" r="2.0897159438023287" fill="gold" />
      <circle cx="45.40645551501008" cy="31.933589782915718" r="1.8129531685976112" fill="gold" />
      <circle cx="29.164740159833926" cy="31.104159401023146" r="3.6398808116917323" fill="gold" />
      <circle cx="58.233788943557684" cy="11.611978281351387" r="1.6768296055245946" fill="gold" />
      <circle cx="81.95252193006341" cy="71.43736579433796" r="1.1347389264643" fill="gold" />
      <circle cx="36.34379504898211" cy="81.62823439685329" r="2.2887169464655455" fill="gold" />
      <circle cx="4.620376667859616" cy="66.53569912017208" r="3.284536830197344" fill="gold" />
      <circle cx="40.20021141950237" cy="27.59602081380438" r="3.626923269562704" fill="gold" />
      <circle cx="83.2350273696079" cy="6.422741870809756" r="0.42780173193740545" fill="gold" />
      <circle cx="33.33388267361421" cy="65.51778037351598" r="1.7301145021984041" fill="gold" />
      <circle cx="66.79183408051863" cy="6.183179708378994" r="3.3061327390966646" fill="gold" />
      <circle cx="46.60928432070758" cy="61.71769998941164" r="3.043061339800648" fill="gold" />
      <circle cx="89.52371991625823" cy="79.16300093349693" r="0.9376194084151606" fill="gold" />
      <circle cx="53.995242494675246" cy="64.69995840626306" r="2.131950678836855" fill="gold" />
      <circle cx="81.13910619650359" cy="77.0342911461006" r="0.7525770023861496" fill="gold" />
      <circle cx="5.378299331890391" cy="87.52222174971648" r="2.1135168357795533" fill="gold" />
      <circle cx="24.1793912982991" cy="0.23885847787074033" r="0.20326365880820774" fill="gold" />
      <circle cx="25.757450762155663" cy="63.588589353437406" r="2.0716119771071932" fill="gold" />
      <circle cx="83.79784884998944" cy="55.22228360890398" r="0.646028710259142" fill="gold" />
      <circle cx="46.67943236091163" cy="55.090379698782435" r="3.2511501114027066" fill="gold" />
      <circle cx="5.862094711739097" cy="56.83661815478084" r="0.5291818650536295" fill="gold" />
      <circle cx="86.68127314690868" cy="57.60083854349415" r="3.5483006566749746" fill="gold" />
      <circle cx="80.3939807082185" cy="94.55418416559279" r="2.8952300341909307" fill="gold" />
      <circle cx="87.44373568365866" cy="86.22344188575671" r="1.2230640076391555" fill="gold" />
      <circle cx="49.08284850204004" cy="99.79137518884576" r="2.015041647358567" fill="gold" />
      <circle cx="35.287029934043645" cy="13.067789998068047" r="2.8592411005692484" fill="gold" />
      <circle cx="66.91495580718338" cy="95.10739647220923" r="2.541092072439859" fill="gold" />
      <circle cx="89.64905871227393" cy="38.045290847652126" r="0.3485216610446069" fill="gold" />
      <circle cx="81.30232799776539" cy="13.792676758382994" r="2.9146281547278834" fill="gold" />
      <circle cx="27.594540598564233" cy="26.868502742206303" r="0.7540889061145437" fill="gold" />
      <circle cx="92.42223151854597" cy="8.411373074669315" r="1.727417137449057" fill="gold" />
      <circle cx="94.88299257927486" cy="91.04108153980184" r="2.9186635957016174" fill="gold" />
      <circle cx="20.917062561660327" cy="11.848567594535076" r="3.1445282147097786" fill="gold" />
      <circle cx="37.862328852911865" cy="52.64276160252109" r="1.2600933297613555" fill="gold" />
      <circle cx="41.28574760228814" cy="5.07785769418142" r="1.0048966022797647" fill="gold" />
      <circle cx="60.36477269421788" cy="90.72600816414248" r="0.403273915026912" fill="gold" />
      <circle cx="28.55816406668921" cy="83.35636055541828" r="3.2216947040127875" fill="gold" />
      <circle cx="10.069367565637478" cy="72.46834356867991" r="0.8903327383854545" fill="gold" />
      <circle cx="99.08942939747696" cy="30.677315069362177" r="1.0841013991117552" fill="gold" />
      <circle cx="65.28557016573082" cy="16.18233085113262" r="3.7935619876380366" fill="gold" />
      <circle cx="52.31244004898944" cy="16.838039273338744" r="0.44365517448324443" fill="gold" />
      <circle cx="3.7284843402769163" cy="49.04034832494969" r="3.3178078877385233" fill="gold" />
      <circle cx="94.01864565601275" cy="71.09121380939105" r="0.42739893601238155" fill="gold" />
      <circle cx="48.442659711011395" cy="52.877585954350984" r="1.3847457840794037" fill="gold" />
      <circle cx="87.52755871152698" cy="10.644286401964887" r="0.7348552014025396" fill="gold" />
      <circle cx="78.2099623932946" cy="54.420217659020665" r="3.9349685842668616" fill="gold" />
   </pattern>

   <!-- draw the individual paths so it's easy to run
        textPaths against them -->
   <path id="path-11" fill="none" d="M0,-800 L 346.41,-600" />
   <path id="path-12" fill="none" d="M-346.41,-600 L0,-800" />
   <path id="path-13" fill="none" d="M0,-800 L 0,0" />
   <path id="path-14" fill="none" d="M-346.41,-600 L346.41,-600" />
   <path id="path-15" fill="none" d="M0,0 L346.41,-600" />
   <path id="path-16" fill="none" d="M346.41,-600 L346.41,-200" />
   <path id="path-17" fill="none" d="M-346.41,-600 L0,0" />
   <path id="path-18" fill="none" d="M-346.41,-600 L-346.41,-200" />
   <path id="path-19" fill="none" d="M-346.41,-200 L346.41,-200" />
   <path id="path-20" fill="none" d="M0,0 L346.41,-200" />
   <path id="path-21" fill="none" d="M346.41,-200 L346.41,200" />
   <path id="path-22" fill="none" d="M-346.41,-200 L0,0" />
   <path id="path-23" fill="none" d="M-346.41,-200 L-346.41,200" />
   <path id="path-24" fill="none" d="M0,0 L346.41,200" />
   <path id="path-25" fill="none" d="M0,0 L0,400" />
   <path id="path-26" fill="none" d="M-346.41,200 L0,0" />
   <path id="path-27" fill="none" d="M-346.41,200 L346.41,200" />
   <path id="path-28" fill="none" d="M0,400 L346.41,200" />
   <path id="path-29" fill="none" d="M0,800 L346.41,200" />
   <path id="path-30" fill="none" d="M-346.41,200 L0,400" />
   <path id="path-31" fill="none" d="M-346.41,200 L0,800" />
   <path id="path-32" fill="none" d="M0,400 L0,800" />
</defs>
<g>
   <desc>the paths
    (note: for "open" sephiroth, draw the black paths, then
    the circles, then the white paths)
   </desc>
   <use href="#path-11" stroke="black" stroke-width="60" />
   <use href="#path-11" stroke="#009999" stroke-width="50" />
   <use href="#path-12" stroke="black" stroke-width="60" />
   <use href="#path-12" stroke="#999999" stroke-width="50" />
   <use href="#path-13" stroke="black" stroke-width="60" />
   <use href="#path-13" stroke="#ccffff" stroke-width="50" />
   <use href="#path-14" stroke="black" stroke-width="60" />
   <use href="#path-14" stroke="#99ff33" stroke-width="50" />
   <use href="#path-15" stroke="black" stroke-width="60" />
   <use href="#path-15" stroke="#ff3300" stroke-width="50" />
   <use href="#path-16" stroke="black" stroke-width="60" />
   <use href="#path-16" stroke="#666600" stroke-width="50" />
   <use href="#path-17" stroke="black" stroke-width="60" />
   <use href="#path-17" stroke="#ffcc33" stroke-width="50" />
   <use href="#path-18" stroke="black" stroke-width="60" />
   <use href="#path-18" stroke="#cc3300" stroke-width="50" />
   <use href="#path-19" stroke="black" stroke-width="60" />
   <use href="#path-19" stroke="#999999" stroke-width="50" />
   <use href="#path-20" stroke="black" stroke-width="60" />
   <use href="#path-20" stroke="#999966" stroke-width="50" />
   <use href="#path-21" stroke="black" stroke-width="60" />
   <use href="#path-21" stroke="#6600cc" stroke-width="50" />
   <use href="#path-22" stroke="black" stroke-width="60" />
   <use href="#path-22" stroke="#006666" stroke-width="50" />
   <use href="#path-23" stroke="black" stroke-width="60" />
   <use href="#path-23" stroke="#666633" stroke-width="50" />
   <use href="#path-24" stroke="black" stroke-width="60" />
   <use href="#path-24" stroke="#330000" stroke-width="50" />
   <use href="#path-25" stroke="black" stroke-width="60" />
   <use href="#path-25" stroke="#009900" stroke-width="50" />
   <use href="#path-26" stroke="black" stroke-width="60" />
   <use href="#path-26" stroke="#000033" stroke-width="50" />
   <use href="#path-27" stroke="black" stroke-width="60" />
   <use href="#path-27" stroke="#ff0066" stroke-width="50" />
   <use href="#path-28" stroke="black" stroke-width="60" />
   <use href="#path-28" stroke="#9966ff" stroke-width="50" />
   <use href="#path-29" stroke="black" stroke-width="60" />
   <use href="#path-29" stroke="white" stroke-width="50" />
   <use href="#path-29" stroke="#ff9999" stroke-opacity="0.47" stroke-width="50" />
   <use href="#path-30" stroke="black" stroke-width="60" />
   <use href="#path-30" stroke="#ff9900" stroke-width="50" />
   <use href="#path-31" stroke="black" stroke-width="60" />
   <use href="#path-31" stroke="#ff0000" stroke-width="50" />
   <use href="#path-32" stroke="black" stroke-width="60" />
   <use href="#path-32" stroke="#000033" stroke-width="50" />
</g>

<g stroke="black" stroke-width="5">
  <desc>The sephiroth</desc>
  <!-- sephira radius == 122.407
       horizontal unit = 346.41
       vertical unit = 200 -->
  <use href="#sephira" fill="#ffffff" x="0" y="-800" /> <!-- kether   -->
  <use href="#sephira" fill="#ccccff" x="346.41" y="-600" /> <!-- chockmah -->
  <use href="#sephira" fill="#663300" x="-346.41" y="-600" /> <!-- binah    -->
  <use href="#sephira" fill="#cc33ff" fill-opacity="0.8" x="0" y="-400" stroke-dasharray="10 5" /> <!-- daath    -->
  <use href="#sephira" fill="#330066" x="346.41" y="-200" /> <!-- chesed   -->
  <use href="#sephira" fill="#ff0033" x="-346.41" y="-200" /> <!-- geburah  -->
  <use href="#sephira" fill="#ff6633" x="0" y="0" /> <!-- tipharet -->
  <use href="#sephira" fill="#ccff00" x="346.41" y="200" /> <!-- netzach  -->
  <use href="#sephira" fill="#993333" x="-346.41" y="200" /> <!-- hod      -->
  <use href="#sephira" fill="#330066" x="0" y="400" /> <!-- yesod    -->
   <g transform="translate(0,800) rotate(45)"> 
     <rect stroke="none" fill="#ffff66" x="-300" y="-300" 
        width="300" height="300" clip-path="url(#sephClip)" />
     <rect stroke="none" fill="#669900" x="0" y="-300" 
        width="300" height="300" clip-path="url(#sephClip)" />
     <rect stroke="none" fill="#cc6633" x="-300" y="0" 
        width="300" height="300" clip-path="url(#sephClip)" />
     <rect stroke="none" fill="url(#blackFleckedGold)" x="0" y="0" 
        width="300" height="300" clip-path="url(#sephClip)" />
     <use href="#sephira" fill="none"  /> <!-- malkuth  -->
   </g>
</g>

<!-- vim: expandtab:sw=3
-->
</svg>
