<?xml version="1.0" encoding="UTF-8"?>
<svg xmlns="http://www.w3.org/2000/svg" version="1.2"
width="360" height="600"
viewBox="-600 -1000 1200 2000" preserveAspectRatio="xMinYMin meet"
>
<title>Decan Tree -- Fall</title>
<desc>This is a tree of life, with the decans for the
fall months overlaid.  It should be noted that this is
the "natural" tree, where the decan rulers correspond
to the sephirot rulers.  This version hand-coded
by Richard Todd 2021</desc>

<style type="text/css">
<![CDATA[
    #my-rect { fill: blue; }
]]>
</style>

<defs>
   <g id="sword-icon">
      <desc>sword icon for the tarot suit 10x20, centered at 0</desc>
      <path d="M0,-10 l3,2 -1,12 h-4 l-1,-12 z" />
      <line x1="0" y1="0" x2="0" y2="-8" />
      <rect x="-5" y="4" width="10" height="2" />
      <rect x="-2" y="6" width="4" height="2" />
      <rect x="-2" y="8" width="4" height="2" />
   </g>

   <g id="cup-icon">
      <desc>cup icon for the tarot suit 10x20, centered at 0</desc>
      <rect x="-5" y="-10" width="10" height="2" />
      <rect x="-1.5" y="0" width="3" height="2" />
      <rect x="-1.5" y="2" width="3" height="2" />
      <rect x="-1.5" y="4" width="3" height="2" />
      <rect x="-1.5" y="6" width="3" height="2" />
      <path d="M-2,8 l-3,2 h10 l-3,-2 z" />
      <path d="M-5,-8 a 5,9 0,0,0 10,0 z" />
   </g>

   <g id="wandy-icon">
      <desc>wand icon for the tarot suit 10x20, centered at 0</desc>
      <path d="
         M-1.5,-4 v10.5 a 2.5,2 0,1,0 3,0 v-10.5 z 
      " />
      <path d="M-1.5,6.5 a 3,3 0,0,0 3,0  
               M-1.5,4.5 a 3,3 0,0,0 3,0  
               M-1.5,2.5 a 3,3 0,0,0 3,0  
               M-1.5,0.5 a 3,3 0,0,0 3,0  
      " />
      <circle cx="0" cy="-7" r="2.5" />
   </g>

   <g id="wand2-icon">
      <desc>wand icon for the tarot suit 10x20, centered at 0</desc>
<!--
   <rect x="-5" y="-10" width="10" height="20" fill="none" /> 
-->
      <path d="M-1,-2.2 
          a 2.5,2 0,1,1 2,0 v 8 
          a 2.5,2 0,1,1 -2,0 
          z" />
      <path d="M-5,-6 a 4,3 0,0,1 10,0" fill="none"/>
      <path d="M-4.5,-3.5 a 3,3 0,0,1 9,0" fill="none"/>
   </g>

   <g id="wand3-icon">
      <desc>wand icon for the tarot suit 10x20, centered at 0</desc>
<!--
   <rect x="-5" y="-10" width="10" height="20" fill="none" /> 
-->
      <path d="M-1,-6 
          a 2,2 0,1,1 2,0 v 12 
          a 2,2 0,1,1 -2,0 
          z" />
   </g>

   <g id="wand-icon">
      <desc>wand icon for the tarot suit 10x20, centered at 0</desc>
<!--
-->
   <rect x="-5" y="-10" width="10" height="20" stroke="green" fill="none" /> 
   <path d="

   "/>
   </g>

   <g id="pentacle-icon">
      <desc>pentacle icon for the tarot suit 15x15, centered at 0</desc>
      <circle cx="0" cy="0" r="7.5" />
      <path d="M0,-6.5 L 3.820604139901076 5.258610463437158 -6.181867355918498 -2.0086104634371584
        6.181867355918498 -2.0086104634371584 -3.820604139901076 5.258610463437158 z " />
   </g>
   
   <g id="pentacle-black-icon">
      <desc>pentacle icon for the tarot suit 15x15, centered at 0</desc>
      <circle cx="0" cy="0" r="7.5" stroke="black" fill="black" />
      <path stroke="white" d="M0,-6.5 L 3.820604139901076 5.258610463437158 -6.181867355918498 -2.0086104634371584
        6.181867355918498 -2.0086104634371584 -3.820604139901076 5.258610463437158 z " />
   </g>


   <circle id="sephira" r="122.407">
      <desc>A sephira circle</desc>
   </circle>
   <!-- draw the individual paths so it's easy to run
        textPaths against them -->
   <path id="path-11" fill="none" d="M0,-800 L 346.41,-600" />
   <path id="path-12" fill="none" d="M-346.41,-600 L0,-800" />
   <path id="path-13" fill="none" d="M0,-800 L 0,0" />
   <path id="path-14" fill="none" d="M-346.41,-600 L346.41,-600" />
   <path id="path-15" fill="none" d="M0,0 L346.41,-600" />
   <path id="path-16" fill="none" d="M346.41,-600 L346.41,-200" />
   <path id="path-17" fill="none" d="M-346.41,-600 L0,0" />
   <path id="path-18" fill="none" d="M-346.41,-600 L-346.41,-200" />
   <path id="path-19" fill="none" d="M-346.41,-200 L346.41,-200" />
   <path id="path-20" fill="none" d="M0,0 L346.41,-200" />
   <path id="path-21" fill="none" d="M346.41,-200 L346.41,200" />
   <path id="path-22" fill="none" d="M-346.41,-200 L0,0" />
   <path id="path-23" fill="none" d="M-346.41,-200 L-346.41,200" />
   <path id="path-24" fill="none" d="M0,0 L346.41,200" />
   <path id="path-25" fill="none" d="M0,0 L0,400" />
   <path id="path-26" fill="none" d="M-346.41,200 L0,0" />
   <path id="path-27" fill="none" d="M-346.41,200 L346.41,200" />
   <path id="path-28" fill="none" d="M0,400 L346.41,200" />
   <path id="path-29" fill="none" d="M0,800 L346.41,200" />
   <path id="path-30" fill="none" d="M-346.41,200 L0,400" />
   <path id="path-31" fill="none" d="M-346.41,200 L0,800" />
   <path id="path-32" fill="none" d="M0,400 L0,800" />
</defs>

<g>
   <desc>the paths
    (note: for "open" sephiroth, draw the black paths, then
    the circles, then the white paths)
   </desc>
   <use href="#path-11" stroke="black" stroke-width="60" />
   <use href="#path-11" stroke="white" stroke-width="50" />
   <use href="#path-12" stroke="black" stroke-width="60" />
   <use href="#path-12" stroke="white" stroke-width="50" />
   <use href="#path-13" stroke="black" stroke-width="60" />
   <use href="#path-13" stroke="white" stroke-width="50" />
   <use href="#path-14" stroke="black" stroke-width="60" />
   <use href="#path-14" stroke="white" stroke-width="50" />
   <use href="#path-15" stroke="black" stroke-width="60" />
   <use href="#path-15" stroke="white" stroke-width="50" />
   <use href="#path-16" stroke="black" stroke-width="60" />
   <use href="#path-16" stroke="white" stroke-width="50" />
   <use href="#path-17" stroke="black" stroke-width="60" />
   <use href="#path-17" stroke="white" stroke-width="50" />
   <use href="#path-18" stroke="black" stroke-width="60" />
   <use href="#path-18" stroke="white" stroke-width="50" />
   <use href="#path-19" stroke="black" stroke-width="60" />
   <use href="#path-19" stroke="white" stroke-width="50" />
   <use href="#path-20" stroke="black" stroke-width="60" />
   <use href="#path-20" stroke="white" stroke-width="50" />
   <use href="#path-21" stroke="black" stroke-width="60" />
   <use href="#path-21" stroke="white" stroke-width="50" />
   <use href="#path-22" stroke="black" stroke-width="60" />
   <use href="#path-22" stroke="white" stroke-width="50" />
   <use href="#path-23" stroke="black" stroke-width="60" />
   <use href="#path-23" stroke="white" stroke-width="50" />
   <use href="#path-24" stroke="black" stroke-width="60" />
   <use href="#path-24" stroke="white" stroke-width="50" />
   <use href="#path-25" stroke="black" stroke-width="60" />
   <use href="#path-25" stroke="white" stroke-width="50" />
   <use href="#path-26" stroke="black" stroke-width="60" />
   <use href="#path-26" stroke="white" stroke-width="50" />
   <use href="#path-27" stroke="black" stroke-width="60" />
   <use href="#path-27" stroke="white" stroke-width="50" />
   <use href="#path-28" stroke="black" stroke-width="60" />
   <use href="#path-28" stroke="white" stroke-width="50" />
   <use href="#path-29" stroke="black" stroke-width="60" />
   <use href="#path-29" stroke="white" stroke-width="50" />
   <use href="#path-30" stroke="black" stroke-width="60" />
   <use href="#path-30" stroke="white" stroke-width="50" />
   <use href="#path-31" stroke="black" stroke-width="60" />
   <use href="#path-31" stroke="white" stroke-width="50" />
   <use href="#path-32" stroke="black" stroke-width="60" />
   <use href="#path-32" stroke="white" stroke-width="50" />
</g>

<g stroke="black" fill="white" stroke-width="5">
  <desc>The sephiroth</desc>
  <!-- sephira radius == 122.407
       horizontal unit = 346.41
       vertical unit = 200 -->
  <use href="#sephira" x="0" y="-800" /> <!-- kether   -->
  <use href="#sephira" x="346.41" y="-600" /> <!-- chockmah -->
  <use href="#sephira" x="-346.41" y="-600" /> <!-- binah    -->
  <use href="#sephira" x="346.41" y="-200" /> <!-- chesed   -->
  <use href="#sephira" x="-346.41" y="-200" /> <!-- geburah  -->
  <use href="#sephira" x="0" y="0" /> <!-- tipharet -->
  <use href="#sephira" x="346.41" y="200" /> <!-- netzach  -->
  <use href="#sephira" x="-346.41" y="200" /> <!-- hod      -->
  <use href="#sephira" x="0" y="400" /> <!-- yesod    -->
  <use href="#sephira" x="0" y="800" /> <!-- malkuth  -->
</g>

<g stroke-width="1"> 
   <use href="#pentacle-black-icon" transform="translate(0,-800) scale(5,5)" />
   <use href="#sword-icon" fill="black" stroke="black" transform="translate(-346.41,-600) scale(5,5)" />
   <use href="#cup-icon" fill="black" stroke="black" transform="translate(346.41,-600) scale(5,5)" />
   <use href="#cup-icon" fill="#33aaff" stroke="black" transform="translate(346.41,-200) scale(5,5)" />
   <use href="#sword-icon" fill="yellow" stroke="black" transform="translate(-346.41,-200) scale(5,5)" />
   <use href="#cup-icon" fill="#33aaff" stroke="black" transform="translate(346.41,-200) scale(5,5)" />
   <use href="#pentacle-icon" fill="#33ffaa" stroke="black" transform="translate(-346.41,200) scale(5,5)" />
   <use href="#wand-icon" fill="#ff33aa" stroke="black" transform="translate(346.41,200) scale(5,5)" />
   <use href="#wand-icon" fill="black" stroke="black" transform="translate(0,400) scale(5,5)" />
   <use href="#wand-icon" fill="#ff33aa" stroke="black" transform="translate(0,800) scale(10,10)" />
</g>

<!-- vim: expandtab:sw=3
-->
</svg>
