<?xml version="1.0" encoding="UTF-8"?>
<svg xmlns="http://www.w3.org/2000/svg" version="1.2"
xmlns:xlink="http://www.w3.org/1999/xlink"
width="360" height="600"
viewBox="-600 -1000 1200 2000" preserveAspectRatio="xMinYMin meet"
>
<title>Mapping to Chinese Cosmos</title>
<desc>This is how Crowley mapped the Chinese cosmos to
the Tree of Life, as given in the Book of Thoth.
Hand-coded by Richard Todd 2022</desc>

<style type="text/css">
<![CDATA[
    #my-rect { fill: blue; }
]]>
</style>

<defs>
   <circle id="sephira" r="122.407">
      <desc>A sephira circle</desc>
   </circle>

   <path id="yang" d="M-90,0h180" />
   <path id="yin" d="M-90,0h75m30,0h75" />

   <!-- draw the individual paths so it's easy to run
        textPaths against them -->
   <path id="path-11" fill="none" d="M0,-800 L 346.41,-600" />
   <path id="path-12" fill="none" d="M-346.41,-600 L0,-800" />
   <path id="path-13" fill="none" d="M0,-800 L 0,0" />
   <path id="path-14" fill="none" d="M-346.41,-600 L346.41,-600" />
   <path id="path-15" fill="none" d="M0,0 L346.41,-600" />
   <path id="path-16" fill="none" d="M346.41,-600 L346.41,-200" />
   <path id="path-17" fill="none" d="M-346.41,-600 L0,0" />
   <path id="path-18" fill="none" d="M-346.41,-600 L-346.41,-200" />
   <path id="path-19" fill="none" d="M-346.41,-200 L346.41,-200" />
   <path id="path-20" fill="none" d="M0,0 L346.41,-200" />
   <path id="path-21" fill="none" d="M346.41,-200 L346.41,200" />
   <path id="path-22" fill="none" d="M-346.41,-200 L0,0" />
   <path id="path-23" fill="none" d="M-346.41,-200 L-346.41,200" />
   <path id="path-24" fill="none" d="M0,0 L346.41,200" />
   <path id="path-25" fill="none" d="M0,0 L0,400" />
   <path id="path-26" fill="none" d="M-346.41,200 L0,0" />
   <path id="path-27" fill="none" d="M-346.41,200 L346.41,200" />
   <path id="path-28" fill="none" d="M0,400 L346.41,200" />
   <path id="path-29" fill="none" d="M0,800 L346.41,200" />
   <path id="path-30" fill="none" d="M-346.41,200 L0,400" />
   <path id="path-31" fill="none" d="M-346.41,200 L0,800" />
   <path id="path-32" fill="none" d="M0,400 L0,800" />
</defs>

<g>
   <desc>the paths
    (note: for "open" sephiroth, draw the black paths, then
    the circles, then the white paths)
   </desc>
   <use xlink:href="#path-11" stroke="black" stroke-width="60" />
   <use xlink:href="#path-11" stroke="white" stroke-width="50" />
   <use xlink:href="#path-12" stroke="black" stroke-width="60" />
   <use xlink:href="#path-12" stroke="white" stroke-width="50" />
   <use xlink:href="#path-13" stroke="black" stroke-width="60" />
   <use xlink:href="#path-13" stroke="white" stroke-width="50" />
   <use xlink:href="#path-14" stroke="black" stroke-width="60" />
   <use xlink:href="#path-14" stroke="white" stroke-width="50" />
   <use xlink:href="#path-15" stroke="black" stroke-width="60" />
   <use xlink:href="#path-15" stroke="white" stroke-width="50" />
   <use xlink:href="#path-16" stroke="black" stroke-width="60" />
   <use xlink:href="#path-16" stroke="white" stroke-width="50" />
   <use xlink:href="#path-17" stroke="black" stroke-width="60" />
   <use xlink:href="#path-17" stroke="white" stroke-width="50" />
   <use xlink:href="#path-18" stroke="black" stroke-width="60" />
   <use xlink:href="#path-18" stroke="white" stroke-width="50" />
   <use xlink:href="#path-19" stroke="black" stroke-width="60" />
   <use xlink:href="#path-19" stroke="white" stroke-width="50" />
   <use xlink:href="#path-20" stroke="black" stroke-width="60" />
   <use xlink:href="#path-20" stroke="white" stroke-width="50" />
   <use xlink:href="#path-21" stroke="black" stroke-width="60" />
   <use xlink:href="#path-21" stroke="white" stroke-width="50" />
   <use xlink:href="#path-22" stroke="black" stroke-width="60" />
   <use xlink:href="#path-22" stroke="white" stroke-width="50" />
   <use xlink:href="#path-23" stroke="black" stroke-width="60" />
   <use xlink:href="#path-23" stroke="white" stroke-width="50" />
   <use xlink:href="#path-24" stroke="black" stroke-width="60" />
   <use xlink:href="#path-24" stroke="white" stroke-width="50" />
   <use xlink:href="#path-25" stroke="black" stroke-width="60" />
   <use xlink:href="#path-25" stroke="white" stroke-width="50" />
   <use xlink:href="#path-26" stroke="black" stroke-width="60" />
   <use xlink:href="#path-26" stroke="white" stroke-width="50" />
   <use xlink:href="#path-27" stroke="black" stroke-width="60" />
   <use xlink:href="#path-27" stroke="white" stroke-width="50" />
   <use xlink:href="#path-28" stroke="black" stroke-width="60" />
   <use xlink:href="#path-28" stroke="white" stroke-width="50" />
   <use xlink:href="#path-29" stroke="black" stroke-width="60" />
   <use xlink:href="#path-29" stroke="white" stroke-width="50" />
   <use xlink:href="#path-30" stroke="black" stroke-width="60" />
   <use xlink:href="#path-30" stroke="white" stroke-width="50" />
   <use xlink:href="#path-31" stroke="black" stroke-width="60" />
   <use xlink:href="#path-31" stroke="white" stroke-width="50" />
   <use xlink:href="#path-32" stroke="black" stroke-width="60" />
   <use xlink:href="#path-32" stroke="white" stroke-width="50" />
</g>

<g stroke="black" fill="white" stroke-width="5">
  <desc>The sephiroth</desc>
  <!-- sephira radius == 122.407
       horizontal unit = 346.41
       vertical unit = 200 -->
  <g transform="translate(0,-800)scale(3.139)" stroke="none">
    <desc>the yin/yang symbol</desc>
    <circle r="39" fill="#000" />
    <path fill="#fff" d="M0,38a38,38 0 0 1 0,-76a19,19 0 0 1 0,38a19,19 0 0 0 0,38"/>
    <circle r="5" cy="19" fill="#fff" />
    <circle r="5" cy="-19" fill="#000" />
  </g>
  <use xlink:href="#sephira" x="346.41" y="-600" /> <!-- chockmah -->
  <use xlink:href="#sephira" x="-346.41" y="-600" /> <!-- binah    -->
  <use xlink:href="#sephira" x="0" y="-400" fill="none" stroke-dasharray="10 5" /> <!-- daath    -->
  <use xlink:href="#sephira" x="346.41" y="-200" /> <!-- chesed   -->
  <use xlink:href="#sephira" x="-346.41" y="-200" /> <!-- geburah  -->
  <use xlink:href="#sephira" x="0" y="0" /> <!-- tipharet -->
  <use xlink:href="#sephira" x="346.41" y="200" /> <!-- netzach  -->
  <use xlink:href="#sephira" x="-346.41" y="200" /> <!-- hod      -->
  <use xlink:href="#sephira" x="0" y="400" /> <!-- yesod    -->
  <use xlink:href="#sephira" x="0" y="800" /> <!-- malkuth  -->
</g>

<g stroke="black" stroke-width="10"><desc>grams (yin/yang/ba gua)</desc>
  <g>
    <use xlink:href="#yang" x="0" y="-20" />
    <use xlink:href="#yin" x="0" y="0" />
    <use xlink:href="#yang" x="0" y="20" />
  </g>
  <g transform="translate(0,400)">
      <use xlink:href="#yin" x="0" y="-20" />
      <use xlink:href="#yang" x="0" y="0" />
      <use xlink:href="#yin" x="0" y="20" />
  </g>
  <g transform="translate(0,800)">
      <use xlink:href="#yin" x="0" y="-20" />
      <use xlink:href="#yin" x="0" y="0" />
      <use xlink:href="#yin" x="0" y="20" />
  </g>
   <g transform="translate(346.41,200)">
      <use xlink:href="#yang" x="0" y="-20" />
      <use xlink:href="#yin" x="0" y="0" />
      <use xlink:href="#yin" x="0" y="20" />
  </g>
   <g transform="translate(-346.41,200)">
      <use xlink:href="#yang" x="0" y="-20" />
      <use xlink:href="#yang" x="0" y="0" />
      <use xlink:href="#yin" x="0" y="20" />
  </g>
     <g transform="translate(346.41,-200)">
      <use xlink:href="#yin" x="0" y="-20" />
      <use xlink:href="#yang" x="0" y="0" />
      <use xlink:href="#yang" x="0" y="20" />
  </g>
   <g transform="translate(-346.41,-200)">
      <use xlink:href="#yin" x="0" y="-20" />
      <use xlink:href="#yin" x="0" y="0" />
      <use xlink:href="#yang" x="0" y="20" />
  </g>
   <g transform="translate(0,-400)">
      <use xlink:href="#yang" x="0" y="-20" />
      <use xlink:href="#yang" x="0" y="0" />
      <use xlink:href="#yang" x="0" y="20" />
  </g>
  <use xlink:href="#yang" x="346.41" y="-600" />
  <use xlink:href="#yin" x="-346.41" y="-600" />
</g>

<!-- vim: expandtab:sw=3
-->
</svg>
