<?xml version="1.0" encoding="UTF-8"?>
<svg xmlns="http://www.w3.org/2000/svg" version="1.2"
width="360" height="600"
viewBox="-600 -1000 1200 2000" preserveAspectRatio="xMinYMin meet"
>
<title>Decan Tree -- Fall</title>
<desc>This is a tree of life, with the decans for the
fall months overlaid.  It should be noted that this is
the "natural" tree, where the decan rulers correspond
to the sephirot rulers.  This version hand-coded
by Richard Todd 2021</desc>

<style type="text/css">
<![CDATA[
    g.midtext text {
       font-family: verdana, arial, sans-serif;
       font-size: 80px;
       stroke: black;
       stroke-width: 1;
       fill: black;
       dominant-baseline: middle;
       text-anchor: middle;
    }
   g.midtext textPath {
      dominant-baseline: middle; 
      font-family: Times New Roman, Times, serif;
      font-size: 75px;
      stroke: black;
      stroke-width: 1;
      fill: black;
   } 
   g.air-sign, g.water-sign, g.earth-sign, g.fire-sign {
      stroke: black;
      stroke-width: 1;
   }
   g.fire-sign { fill: #ff5555; }
   g.water-sign { fill: #55ffff; }
   g.air-sign { fill: #ffd755; }
   g.earth-sign { fill: #0000ff; }
]]>
</style>

<defs>
   <!-- our planetary symbols -->
   <g id="venus-shape">
      <desc>reusable venus shape..needed for mercury</desc>
      <path d="
        M-10,-5 a 10,10 0,1,0 20,0 a 10,10 0,1,0 -20,0 
        m 2.1,0 a 8,9 0,1,1 16,0 a 8,9 0,1,1 -16,0 
      " />
      <path 
      d="M -1,4.9 v 3.1 h -4 l -2,-1.5 v 5 l 2,-1.5 h 4 
           v 2.7 l -1.5,2 h 5 l -1.5,-2 v-2.7
           h 4 l2,1.5 v -5 l-2,1.5 h -4 v -3.1 z" />
   </g>

   <g id="mars-shape">
      <desc>Mars Symbol... bounding box -15,-15,30,30</desc>
      <path d="
        M-15,5 a 10,10 0,1,0 20,0 a 10,10 0,1,0 -20,0 
        m 2.5,0 a 8,9 0,1,1 16,0 a 8,9 0,1,1 -16,0 
      " />
      <path d="
        M1.4,-2.1 l 10,-10 h -7 l -2,-2 h 12 v 12 l -2,-2 v -6 l -10,10 z 
      " />
   </g>

   <g id="sun-shape">
      <desc>Sun Symbol</desc>
      <path d="
        M-15,0 a 15,15 0,1,0 30,0 a 15,15 0,1,0 -30,0
        m 2,0 a 13,14 0,1,1 26,0 a 13,14 0,1,1 -26,0
      " />
      <circle r="2" />
   </g>

   <g id="mercury-shape">
      <desc>Mercury Symbol</desc>
      <use href="#venus-shape" />
      <path d="
        M-10,-21 a 10,7 0,1,0 20,0 l -2.2,1
          a 7.8,5 0,0,1 -15.6,0 z
        " />
   </g>

   <g id="moon-shape">
      <desc>the moon</desc>
      <path d="
         M-10.6066,-10.6066 a 15,15 0,1,1 0,21.2132 
         a 14,14 0,1,0 0,-21.2132 z
      " />
      <path d="
         M-10.6066,-10.6066 a 11,15 0,1,1 0,21.2132 
         a 10.5,14 0,1,0 0,-21.2132 z
      " />
   </g>

   <g id="jupiter-shape">
      <desc>Jupiter</desc>
      <path 
         d="M 1.5,4.0 l1.5,2 v 2 h -9 l -2,2 h 11 
              v 2.7 l -1.5,2 h 5 l -1.5,-2 v-2.7
              h 5 l2,1.5 v -5 l-2,1.5 h -5 v -2 l1.5,-2 z" />
      <path fill="black" stroke="none"
         d=" M -9.5,11.5 C 3,3 5,-13 -5,-14 
             S -15,-8 -11,-4
            C -15,-8 -10,-14 -5,-12
            S 3,2 -11,10.5 z
         " />
         <path fill="none" stroke="red" 
            d="M -11,-4 
            "/>
   </g>

   <g id="saturn-shape"> 
      <desc>Saturn</desc>
      <path fill="black" stroke="none"
         d="M-1.25,-21 h -5 l 1.5,2 v 5 h -5 l -2,-1.5 v 5
            l 2,-1.5 h 5 v 17 l2,-4 v-13
            h 5 l 2,1.5 v -5 l -2,1.5 h -5 v -5 z
         "/>
      <path fill="black" stroke="none" stroke-width="0.5"
         d="M -4.8,3.5
            C 5,-25 20,5 7,7.5 
            S 0,15 5,11
            C -1,18 -7.5,9 4.5,6.5
            S 5,-22 -4.5,5.5
            z
         "/>
   </g>

   <g id="sword-icon" class="air-sign">
      <desc>sword icon for the tarot suit 10x20, centered at 0</desc>
      <path d="M0,-10 l3,2 -1,12 h-4 l-1,-12 z" />
      <line x1="0" y1="0" x2="0" y2="-8" />
      <rect x="-5" y="4" width="10" height="2" />
      <rect x="-2" y="6" width="4" height="2" />
      <rect x="-2" y="8" width="4" height="2" />
   </g>

   <g id="cup-icon" class="water-sign">
      <desc>cup icon for the tarot suit 10x20, centered at 0</desc>
      <rect x="-5" y="-10" width="10" height="2" />
      <rect x="-1.5" y="0" width="3" height="2" />
      <rect x="-1.5" y="2" width="3" height="2" />
      <rect x="-1.5" y="4" width="3" height="2" />
      <rect x="-1.5" y="6" width="3" height="2" />
      <path d="M-2,8 l-3,2 h10 l-3,-2 z" />
      <path d="M-5,-8 a 5,9 0,0,0 10,0 z" />
   </g>

   <g id="wand-icon" class="fire-sign">
      <desc>wand icon for the tarot suit 10x20, centered at 0</desc>
       <g transform="translate(2,-7) rotate(20)">
        <rect x="-1.5" y="6" width="3" height="2" />
        <rect x="-1.5" y="8" width="3" height="2" />
        <rect x="-1.5" y="10" width="3" height="2" />
        <rect x="-1.5" y="12" width="3" height="2" />
        <rect x="-1.5" y="14" width="3" height="2" />
        <rect x="-1.5" y="16" width="3" height="2" />
        <polygon points="0,0 -2.5,4.5 -1.5,6 1.5,6 2.5,4.5" />
        <circle cx="0" cy="0" r="3" />
     </g>
   </g>

   <g id="pentacle-icon" class="earth-sign">
      <desc>pentacle icon for the tarot suit 15x15, centered at 0</desc>
      <circle cx="0" cy="0" r="7.5" stroke="black" />
      <path d="M0,-6.5 L 3.820604139901076 5.258610463437158 -6.181867355918498 -2.0086104634371584
        6.181867355918498 -2.0086104634371584 -3.820604139901076 5.258610463437158 z " />
   </g>
   
   <circle id="sephira" r="122.407">
      <desc>A sephira circle</desc>
   </circle>
   <!-- draw the individual paths so it's easy to run
        textPaths against them -->
   <path id="path-11" fill="none" d="M0,-800 L 346.41,-600" />
   <path id="path-12" fill="none" d="M-346.41,-600 L0,-800" />
   <path id="path-13" fill="none" d="M0,-800 L 0,0" />
   <path id="path-14" fill="none" d="M-346.41,-600 L346.41,-600" />
   <path id="path-15" fill="none" d="M0,0 L346.41,-600" />
   <path id="path-16" fill="none" d="M346.41,-600 L346.41,-200" />
   <path id="path-17" fill="none" d="M-346.41,-600 L0,0" />
   <path id="path-18" fill="none" d="M-346.41,-600 L-346.41,-200" />
   <path id="path-19" fill="none" d="M-346.41,-200 L346.41,-200" />
   <path id="path-20" fill="none" d="M0,0 L346.41,-200" />
   <path id="path-21" fill="none" d="M346.41,-200 L346.41,200" />
   <path id="path-22" fill="none" d="M-346.41,-200 L0,0" />
   <path id="path-23" fill="none" d="M-346.41,-200 L-346.41,200" />
   <path id="path-24" fill="none" d="M0,0 L346.41,200" />
   <path id="path-25" fill="none" d="M0,0 L0,400" />
   <path id="path-26" fill="none" d="M-346.41,200 L0,0" />
   <path id="path-27" fill="none" d="M-346.41,200 L346.41,200" />
   <path id="path-28" fill="none" d="M0,400 L346.41,200" />
   <path id="path-29" fill="none" d="M0,800 L346.41,200" />
   <path id="path-30" fill="none" d="M-346.41,200 L0,400" />
   <path id="path-31" fill="none" d="M-346.41,200 L0,800" />
   <path id="path-32" fill="none" d="M0,400 L0,800" />
</defs>

<g>
   <desc>the paths
    (note: for "open" sephiroth, draw the black paths, then
    the circles, then the white paths)
   </desc>
   <use href="#path-11" stroke="black" stroke-width="60" />
   <use href="#path-11" stroke="#ffd755" stroke-width="50" />
   <use href="#path-12" stroke="black" stroke-width="60" />
   <use href="#path-12" stroke="white" stroke-width="50" />
   <use href="#path-13" stroke="black" stroke-width="60" />
   <use href="#path-13" stroke="white" stroke-width="50" />
   <use href="#path-14" stroke="black" stroke-width="60" />
   <use href="#path-14" stroke="white" stroke-width="50" />
   <use href="#path-15" stroke="black" stroke-width="60" />
   <use href="#path-15" stroke="white" stroke-width="50" />
   <use href="#path-16" stroke="black" stroke-width="60" />
   <use href="#path-16" stroke="white" stroke-width="50" />
   <use href="#path-17" stroke="black" stroke-width="60" />
   <use href="#path-17" stroke="white" stroke-width="50" />
   <use href="#path-18" stroke="black" stroke-width="60" />
   <use href="#path-18" stroke="white" stroke-width="50" />
   <use href="#path-19" stroke="black" stroke-width="60" />
   <use href="#path-19" stroke="white" stroke-width="50" />
   <use href="#path-20" stroke="black" stroke-width="60" />
   <use href="#path-20" stroke="white" stroke-width="50" />
   <use href="#path-21" stroke="black" stroke-width="60" />
   <use href="#path-21" stroke="white" stroke-width="50" />
   <use href="#path-22" stroke="black" stroke-width="60" />
   <use href="#path-22" stroke="white" stroke-width="50" />
   <use href="#path-23" stroke="black" stroke-width="60" />
   <use href="#path-23" stroke="#55ffff" stroke-width="50" />
   <use href="#path-24" stroke="black" stroke-width="60" />
   <use href="#path-24" stroke="white" stroke-width="50" />
   <use href="#path-25" stroke="black" stroke-width="60" />
   <use href="#path-25" stroke="white" stroke-width="50" />
   <use href="#path-26" stroke="black" stroke-width="60" />
   <use href="#path-26" stroke="white" stroke-width="50" />
   <use href="#path-27" stroke="black" stroke-width="60" />
   <use href="#path-27" stroke="white" stroke-width="50" />
   <use href="#path-28" stroke="black" stroke-width="60" />
   <use href="#path-28" stroke="white" stroke-width="50" />
   <use href="#path-29" stroke="black" stroke-width="60" />
   <use href="#path-29" stroke="white" stroke-width="50" />
   <use href="#path-30" stroke="black" stroke-width="60" />
   <use href="#path-30" stroke="white" stroke-width="50" />
   <use href="#path-31" stroke="black" stroke-width="60" />
   <use href="#path-31" stroke="#ff5555" stroke-width="50" />
   <use href="#path-32" stroke="black" stroke-width="60" />
   <use href="#path-32" stroke="white" stroke-width="50" />
</g>

<g stroke="black" fill="white" stroke-width="5">
  <desc>The sephiroth</desc>
  <!-- sephira radius == 122.407
       horizontal unit = 346.41
       vertical unit = 200 -->
  <use href="#sephira" x="0" y="-800" /> <!-- kether   -->
  <use href="#sephira" x="346.41" y="-600" /> <!-- chockmah -->
  <use href="#sephira" x="-346.41" y="-600" /> <!-- binah    -->
  <use href="#sephira" x="346.41" y="-200" /> <!-- chesed   -->
  <use href="#sephira" x="-346.41" y="-200" /> <!-- geburah  -->
  <use href="#sephira" x="0" y="0" /> <!-- tipharet -->
  <use href="#sephira" x="346.41" y="200" /> <!-- netzach  -->
  <use href="#sephira" x="-346.41" y="200" /> <!-- hod      -->
  <use href="#sephira" x="0" y="400" /> <!-- yesod    -->
  <use href="#sephira" x="0" y="800" /> <!-- malkuth  -->
</g>

<g class="midtext" stroke-width="1"> 
   <!-- kether -->
   <use href="#cup-icon" transform="translate(0,-800) scale(5,5)" />
   <text x="-60" y="-800">A</text>
   <!-- chockmah -->
   <use href="#sword-icon" transform="translate(346.41,-600) scale(5,5)" />
   <text x="286" y="-600">2</text>
   <use href="#moon-shape" 
      stroke="none"
      transform="translate(405,-600) scale(2.5)" />
   <!-- binah -->
   <use href="#sword-icon" transform="translate(-346.41,-600) scale(5,5)" />
   <text x="-405" y="-600">3</text>
   <use href="#saturn-shape" 
      stroke="none"
      transform="translate(-286,-600) scale(2.5)" />
   <!-- chesed -->
   <use href="#sword-icon" transform="translate(346.41,-200) scale(5,5)" />
   <text x="286" y="-200">4</text>
   <use href="#jupiter-shape" 
      stroke="none"
      transform="translate(405,-200) scale(2.5)" />
   <!-- geburah -->
   <use href="#cup-icon" transform="translate(-346.41,-200) scale(5,5)" />
   <text x="-405" y="-200">5</text>
   <use href="#mars-shape" 
      stroke="none"
      transform="translate(-286,-200) scale(2.5)" />
   <!-- tipharet -->
   <use href="#cup-icon" transform="translate(0,0) scale(5,5)" />
   <text x="-60" y="0">6</text>
   <use href="#sun-shape" 
      stroke="none"
      transform="translate(65,0) scale(2.5)" />
   <!-- netzach -->
   <use href="#cup-icon" transform="translate(346.41,200) scale(5,5)" />
   <text x="286" y="200">7</text>
   <use href="#venus-shape" 
      stroke="none"
      transform="translate(405,200) scale(2.5)" />
   <!-- hod -->
   <use href="#wand-icon" transform="translate(-346.41,200) scale(5,5)" />
   <text x="-405" y="200">8</text>
   <use href="#mercury-shape" 
      stroke="none"
      transform="translate(-286,200) scale(2.5)" />
   <!-- yesod -->
   <use href="#wand-icon" transform="translate(0,400) scale(5,5)" />
   <text x="-60" y="400">9</text>
   <use href="#moon-shape" 
      stroke="none"
      transform="translate(60,400) scale(2.5)" />
   <!-- malkuth -->
   <use href="#wand-icon" transform="translate(0,800) scale(5,5)" />
   <text x="-65" y="800">10</text>
   <use href="#saturn-shape" 
      stroke="none"
      transform="translate(60,800) scale(2.5)" />
</g>

<g class="midtext" fill="black" stroke="black" 
   stroke-width="1" font-weight="bold"
   font-size="43" 
>
   <desc>I've noticed that the mother letters line up nicely with
   the elements in the Fall tree.  I note that here.</desc>
   <text dx="190"><textPath href="#path-11">א</textPath></text>
   <text dx="190"><textPath href="#path-23">מ</textPath></text>
   <text dx="320"><textPath href="#path-31">ש</textPath></text>
</g>

<!-- vim: expandtab:sw=3
-->
</svg>
