<?xml version="1.0" encoding="UTF-8"?>
<svg xmlns="http://www.w3.org/2000/svg" version="1.2"
width="600" height="600"
viewBox="-70 -105 140 210" preserveAspectRatio="xMinYMin meet"
>
<title>TITLE</title>
<desc>DESC</desc>

<style type="text/css">
<![CDATA[
    #my-rect { fill: blue; }
]]>
</style>

<defs>
   <polygon id="hex-part"
      points="-28.9,-9.9 0,-60 17.5,-30 6,-30 0,-40 -23,0">
      <desc>One section of the hexagon shape</desc>
   </polygon>

   <g id="venus-shape">
      <desc>reusable venus shape..needed for mercury</desc>
      <path d="
        M-10,-5 a 10,10 0,1,0 20,0 a 10,10 0,1,0 -20,0 
        m 2.1,0 a 8,9 0,1,1 16,0 a 8,9 0,1,1 -16,0 
      " />
      <path 
      d="M -1,4.9 v 3.1 h -4 l -2,-1.5 v 5 l 2,-1.5 h 4 
           v 2.7 l -1.5,2 h 5 l -1.5,-2 v-2.7
           h 4 l2,1.5 v -5 l-2,1.5 h -4 v -3.1 z" />
   </g>
</defs>
<!-- -s 6  -d 50 28.867525 -->
<g id="pattern" fill="none" stroke="black" stroke-width="1">
   <desc>Hexagram</desc>
   <use href="#hex-part" fill="gold" />
   <use href="#hex-part" fill="gold" transform="rotate(60)" />
   <use href="#hex-part" fill="gold" transform="rotate(120)" />
   <use href="#hex-part" fill="gold" transform="rotate(180)" />
   <use href="#hex-part" fill="gold" transform="rotate(240)" />
   <use href="#hex-part" fill="gold" transform="rotate(300)" />
</g>

<g stroke="none" fill="black" 
   transform="translate(-57,-35)scale(0.7,0.7)">
   <desc>Mars Symbol... bounding box -15,-15,30,30</desc>
   <path d="
     M-15,5 a 10,10 0,1,0 20,0 a 10,10 0,1,0 -20,0 
     m 2.5,0 a 8,9 0,1,1 16,0 a 8,9 0,1,1 -16,0 
   " />
   <path d="
     M1.4,-2.1 l 10,-10 h -7 l -2,-2 h 12 v 12 l -2,-2 v -6 l -10,10 z 
   " />
</g>

<g stroke="none" fill="black" 
   transform="translate(0,0) scale(0.7,0.7)">
   <desc>Sun Symbol</desc>
   <path d="
     M-15,0 a 15,15 0,1,0 30,0 a 15,15 0,1,0 -30,0
     m 2,0 a 13,14 0,1,1 26,0 a 13,14 0,1,1 -26,0
   " />
   <circle r="2" />
</g>

<g stroke="none" fill="black" 
   transform="translate(60,32) scale(0.7,0.7)">
   <desc>Venus Symbol</desc>
   <use href="#venus-shape" />
</g>


<g stroke="none" fill="black" 
   transform="translate(-60,35) scale(0.7,0.7)">
   <rect x="-15" y="-15" height="30" width="30" stroke-width="1" stroke="none" fill="none" />
   <desc>Mercury Symbol</desc>
   <use href="#venus-shape" />
   <path d="
     M-10,-21 a 10,7 0,1,0 20,0 l -2.2,1
       a 7.8,5 0,0,1 -15.6,0 z
     " />
</g>

<g stroke="none" fill="black" 
   transform="translate(0,75) scale(0.7,0.7)">
   <rect x="-15" y="-15" height="30" width="30" stroke-width="1" stroke="none" fill="none" />
   <desc>the moon</desc>
   <path d="
      M-10.6066,-10.6066 a 15,15 0,1,1 0,21.2132 
      a 14,14 0,1,0 0,-21.2132 z
   " />
   <path d="
      M-10.6066,-10.6066 a 11,15 0,1,1 0,21.2132 
      a 10.5,14 0,1,0 0,-21.2132 z
   " />
</g>

<g stroke="none" fill="black" 
   transform="translate(60,-32) scale(0.7,0.7)">
   <rect x="-15" y="-15" height="30" width="30" stroke-width="1" stroke="none" fill="none" />
   <desc>Jupiter</desc>
   <path 
      d="M 1.5,4.0 l1.5,2 v 2 h -9 l -2,2 h 11 
           v 2.7 l -1.5,2 h 5 l -1.5,-2 v-2.7
           h 5 l2,1.5 v -5 l-2,1.5 h -5 v -2 l1.5,-2 z" />
   <path fill="black" stroke="none"
      d=" M -10,11 C 5,0 5,-13  -13,-13 
          C 0,-13 0,-2  -10,11 z
      " />
</g>

<g stroke="none" fill="black" 
   transform="translate(60,32) scale(0.7,0.7)">
   <rect x="-15" y="-15" height="30" width="30" stroke-width="1" stroke="none" fill="none" />

</g>
<!-- vim: expandtab:sw=3
-->
</svg>
