<?xml version="1.0" encoding="UTF-8" standalone="no"?>
<!-- Created with Inkscape (http://www.inkscape.org/) -->

<svg
   width="207.0117mm"
   height="231.72951mm"
   viewBox="0 0 207.0117 231.72951"
   version="1.1"
   id="svg13088"
   inkscape:version="1.1.2 (b8e25be833, 2022-02-05)"
   sodipodi:docname="Flower-1.svg"
   xmlns:inkscape="http://www.inkscape.org/namespaces/inkscape"
   xmlns:sodipodi="http://sodipodi.sourceforge.net/DTD/sodipodi-0.dtd"
   xmlns:xlink="http://www.w3.org/1999/xlink"
   xmlns="http://www.w3.org/2000/svg"
   xmlns:svg="http://www.w3.org/2000/svg">
  <sodipodi:namedview
     id="namedview13090"
     pagecolor="#ffffff"
     bordercolor="#666666"
     borderopacity="1.0"
     inkscape:pageshadow="2"
     inkscape:pageopacity="0.0"
     inkscape:pagecheckerboard="0"
     inkscape:document-units="mm"
     showgrid="false"
     inkscape:zoom="0.68506594"
     inkscape:cx="383.17479"
     inkscape:cy="551.04185"
     inkscape:window-width="1920"
     inkscape:window-height="991"
     inkscape:window-x="-9"
     inkscape:window-y="-9"
     inkscape:window-maximized="1"
     inkscape:current-layer="layer4"
     fit-margin-top="0"
     fit-margin-left="0"
     fit-margin-right="0"
     fit-margin-bottom="0" />
  <defs
     id="defs13085">
    <linearGradient
       inkscape:collect="always"
       id="linearGradient17250">
      <stop
         style="stop-color:#00ce00;stop-opacity:1"
         offset="0"
         id="stop17246" />
      <stop
         style="stop-color:#168016;stop-opacity:0.93333334"
         offset="1"
         id="stop17248" />
    </linearGradient>
    <linearGradient
       inkscape:collect="always"
       id="linearGradient15427">
      <stop
         style="stop-color:#fafafa;stop-opacity:1"
         offset="0"
         id="stop15423" />
      <stop
         style="stop-color:#ffffff;stop-opacity:0.32941177"
         offset="1"
         id="stop15425" />
    </linearGradient>
    <linearGradient
       inkscape:collect="always"
       id="linearGradient13323">
      <stop
         style="stop-color:#9a9ada;stop-opacity:1"
         offset="0"
         id="stop13319" />
      <stop
         style="stop-color:#25b1d7;stop-opacity:0.99215686"
         offset="1"
         id="stop13321" />
    </linearGradient>
    <linearGradient
       inkscape:collect="always"
       xlink:href="#linearGradient13323"
       id="linearGradient13327"
       x1="3.4759429"
       y1="98.678154"
       x2="210.48766"
       y2="98.678154"
       gradientUnits="userSpaceOnUse"
       gradientTransform="matrix(1,0,0,1.2072435,0,-0.56028499)" />
    <radialGradient
       inkscape:collect="always"
       xlink:href="#linearGradient15427"
       id="radialGradient15429"
       cx="377.95639"
       cy="301.28421"
       fx="377.95639"
       fy="301.28421"
       r="251.67963"
       gradientTransform="matrix(1,0,0,0.96571331,0,10.330038)"
       gradientUnits="userSpaceOnUse" />
    <linearGradient
       inkscape:collect="always"
       xlink:href="#linearGradient17250"
       id="linearGradient17252"
       x1="112.7719"
       y1="161.55994"
       x2="145.31767"
       y2="162.33237"
       gradientUnits="userSpaceOnUse"
       gradientTransform="matrix(1,0,0,0.96632955,0,2.8760498)" />
  </defs>
  <g
     inkscape:groupmode="layer"
     id="layer2"
     inkscape:label="background"
     style="display:inline"
     sodipodi:insensitive="true"
     transform="translate(-3.4759429,-2.703511)">
    <rect
       style="opacity:0.749543;fill:url(#linearGradient13327);fill-opacity:1;stroke:none;stroke-width:0.29071;stroke-linejoin:round;stroke-miterlimit:4;stroke-dasharray:none;stroke-opacity:0.969199"
       id="rect13263"
       width="207.0117"
       height="231.72951"
       x="3.4759429"
       y="2.703511" />
  </g>
  <g
     inkscape:groupmode="layer"
     id="layer3"
     inkscape:label="Stem"
     style="display:inline"
     sodipodi:insensitive="true"
     transform="translate(-3.4759429,-2.703511)">
    <path
       style="opacity:0.749543;fill:url(#linearGradient17252);fill-opacity:1;stroke:#000000;stroke-width:0.26009;stroke-linecap:round;stroke-linejoin:round;stroke-miterlimit:4;stroke-dasharray:none;stroke-opacity:0.162218"
       id="path17178"
       d="m 129.35775,88.811719 c 0.2847,1.456691 0.0482,0.483122 1.43362,3.192531 1.66284,3.251875 2.75648,5.061595 4.18211,8.5276 1.948,4.73594 2.38067,6.71816 3.82844,11.66963 1.90425,8.28304 2.85663,16.80104 2.15556,25.28404 -0.44954,5.43948 -0.92801,6.584 -2.17889,11.88086 -0.68563,1.93233 -1.25479,3.90699 -2.05689,5.79699 -3.11689,7.34446 -7.96353,13.8658 -13.3474,19.80329 -1.19247,1.3151 -2.4597,2.56509 -3.68955,3.84763 -4.61343,4.63067 -9.61838,8.88679 -14.00493,13.72945 -2.89352,3.1944 -2.93944,3.44649 -5.47673,6.91027 -2.920128,4.24567 -5.170835,8.89558 -6.638646,13.79316 -0.586398,1.95662 -1.011425,4.03232 -1.453324,6.02381 -0.903722,3.80604 -1.14205,7.6986 -1.456497,11.57621 -0.04242,0.30658 -0.08483,0.61317 -0.127251,0.91976 -0.366888,2.71007 3.599291,3.21147 3.966178,0.50138 v 0 c 0.04963,-0.37333 0.09926,-0.74666 0.148886,-1.11999 0.299014,-3.70705 0.516848,-7.4294 1.380054,-11.06832 0.393787,-1.78101 0.828447,-3.89005 1.346107,-5.63827 1.341194,-4.52944 3.410983,-8.83141 6.102243,-12.75856 2.37532,-3.26093 2.415,-3.49579 5.14904,-6.5186 4.38135,-4.84414 9.39944,-9.08527 14.00031,-13.72464 1.27726,-1.3348 2.59363,-2.63559 3.83177,-4.00436 5.69999,-6.30141 10.78101,-13.22886 14.05576,-21.025 0.84797,-2.01874 1.44796,-4.12666 2.17194,-6.18999 1.31506,-5.64564 1.80896,-6.8199 2.27567,-12.60941 0.71592,-8.88082 -0.29057,-17.79694 -2.30485,-26.46315 -1.54469,-5.25698 -1.95047,-7.16441 -4.02872,-12.201056 -1.46611,-3.553093 -2.53367,-5.311112 -4.22413,-8.614974 -0.44464,-0.869003 -0.85201,-1.755611 -1.30239,-2.62185 -0.28697,-0.551945 -0.60606,-1.087743 -0.90909,-1.631615 -1.99998,-1.932646 -4.82839,0.800528 -2.8284,2.733174 z" />
  </g>
  <g
     inkscape:groupmode="layer"
     id="layer4"
     inkscape:label="Flower"
     style="display:inline;mix-blend-mode:normal"
     sodipodi:insensitive="true"
     transform="translate(-3.4759429,-2.703511)">
    <g
       id="g16917"
       transform="translate(32.442132,3.4759426)">
      <path
         sodipodi:type="star"
         style="opacity:0.749543;fill:url(#radialGradient15429);fill-opacity:1;stroke:#000000;stroke-width:1;stroke-linecap:round;stroke-linejoin:round;stroke-miterlimit:4;stroke-dasharray:none;stroke-opacity:0.162218"
         id="path15377"
         inkscape:flatsided="false"
         sodipodi:sides="16"
         sodipodi:cx="382.44495"
         sodipodi:cy="306.53983"
         sodipodi:r1="244.40068"
         sodipodi:r2="75.764214"
         sodipodi:arg1="0.78539816"
         sodipodi:arg2="0.9817477"
         inkscape:rounded="-3.46945e-18"
         inkscape:randomized="0.05"
         d="M 554.72769,481.27817 424.17526,366.84701 469.62108,532.38061 402.6889,380.48803 375.03346,543.83492 360.02143,391.86264 286.36948,531.95771 333.00157,359.16735 215.27082,482.78107 329.77299,356.05832 165.26778,388.26452 316.11712,311.94926 126.7759,305.56921 316.17882,291.76753 165.39472,219.88338 329.66883,263.51327 215.02478,129.4786 333.05542,237.31376 286.29166,82.233473 359.90824,221.52475 375.21857,58.7335 402.5757,234.59021 469.54326,82.65637 424.22911,244.99343 554.48165,127.97571 l -108.245,129.81501 168.82362,-55.28644 -161.85215,87.55674 175.92872,18.98386 -175.99042,1.19787 161.7869,85.08275 -168.59251,-44.98972 z"
         transform="scale(0.26458333)"
         inkscape:transform-center-x="1.1876038"
         inkscape:transform-center-y="-1.3905498"
         inkscape:tile-cx="101.18856"
         inkscape:tile-cy="81.105327"
         inkscape:tile-w="133.18047"
         inkscape:tile-h="128.61415"
         inkscape:tile-x0="33.410728"
         inkscape:tile-y0="15.407706" />
      <use
         x="0"
         y="0"
         inkscape:tiled-clone-of="#path15377"
         xlink:href="#path15377"
         transform="translate(-1.4978187,2.6114708)"
         fill="#cd2828"
         stroke="#cd2828"
         id="use16819"
         inkscape:transform-center-x="-73.221347"
         inkscape:transform-center-y="58.255661"
         width="100%"
         height="100%" />
      <use
         x="0"
         y="0"
         inkscape:tiled-clone-of="#path15377"
         xlink:href="#path15377"
         transform="matrix(0.97781146,0.15487012,-0.15487012,0.97781146,13.555239,-15.061141)"
         fill="#a329c2"
         stroke="#a329c2"
         id="use16821"
         inkscape:transform-center-x="-73.663816"
         inkscape:transform-center-y="58.442842"
         width="100%"
         height="100%" />
      <use
         x="0"
         y="0"
         inkscape:tiled-clone-of="#path15377"
         xlink:href="#path15377"
         transform="matrix(0.93203539,0.30283665,-0.30283665,0.93203539,30.201329,-26.085683)"
         fill="#2962b7"
         stroke="#2962b7"
         id="use16823"
         inkscape:transform-center-x="-75.691206"
         inkscape:transform-center-y="59.475756"
         width="100%"
         height="100%" />
      <use
         x="0"
         y="0"
         inkscape:tiled-clone-of="#path15377"
         xlink:href="#path15377"
         transform="matrix(0.86427633,0.44037078,-0.44037078,0.86427633,49.401877,-33.672074)"
         fill="#29ad5e"
         stroke="#29ad5e"
         id="use16825"
         inkscape:transform-center-x="-77.485228"
         inkscape:transform-center-y="59.298665"
         width="100%"
         height="100%" />
      <use
         x="0"
         y="0"
         inkscape:tiled-clone-of="#path15377"
         xlink:href="#path15377"
         transform="matrix(0.77665631,0.56427384,-0.56427384,0.77665631,67.807067,-38.999042)"
         fill="#8aa3ca"
         stroke="#8aa3ca"
         id="use16827"
         inkscape:transform-center-x="-75.651918"
         inkscape:transform-center-y="59.770529"
         width="100%"
         height="100%" />
      <use
         x="0"
         y="0"
         inkscape:tiled-clone-of="#path15377"
         xlink:href="#path15377"
         transform="matrix(0.67175144,0.67175144,-0.67175144,0.67175144,88.525772,-42.354765)"
         fill="#992929"
         stroke="#992929"
         id="use16829"
         inkscape:transform-center-x="-75.044213"
         inkscape:transform-center-y="59.871905"
         width="100%"
         height="100%" />
      <use
         x="0"
         y="0"
         inkscape:tiled-clone-of="#path15377"
         xlink:href="#path15377"
         transform="matrix(0.55251814,0.76047597,-0.76047597,0.55251814,105.52047,-41.609762)"
         fill="#7a298f"
         stroke="#7a298f"
         id="use16831"
         inkscape:transform-center-x="-74.985409"
         inkscape:transform-center-y="59.965619"
         width="100%"
         height="100%" />
      <use
         x="0"
         y="0"
         inkscape:tiled-clone-of="#path15377"
         xlink:href="#path15377"
         transform="matrix(0.42221116,0.82863607,-0.82863607,0.42221116,126.51451,-37.856919)"
         fill="#284e85"
         stroke="#284e85"
         id="use16833"
         inkscape:transform-center-x="-73.782999"
         inkscape:transform-center-y="61.457492"
         width="100%"
         height="100%" />
      <use
         x="0"
         y="0"
         inkscape:tiled-clone-of="#path15377"
         xlink:href="#path15377"
         transform="matrix(0.28429563,0.87497199,-0.87497199,0.28429563,140.73147,-31.439168)"
         fill="#287c49"
         stroke="#287c49"
         id="use16835"
         inkscape:transform-center-x="-73.813403"
         inkscape:transform-center-y="60.265728"
         width="100%"
         height="100%" />
      <use
         x="0"
         y="0"
         inkscape:tiled-clone-of="#path15377"
         xlink:href="#path15377"
         transform="matrix(0.14235536,0.89879639,-0.89879639,0.14235536,158.28876,-21.444978)"
         fill="#6372eb"
         stroke="#6372eb"
         id="use16837"
         inkscape:transform-center-x="-75.060984"
         inkscape:transform-center-y="58.607692"
         width="100%"
         height="100%" />
      <use
         x="0"
         y="0"
         inkscape:tiled-clone-of="#path15377"
         xlink:href="#path15377"
         transform="matrix(0,0.9,-0.9,0,173.1065,-9.4482101)"
         fill="#692626"
         stroke="#692626"
         id="use16839"
         inkscape:transform-center-x="-75.654382"
         inkscape:transform-center-y="58.577365"
         width="100%"
         height="100%" />
      <use
         x="0"
         y="0"
         inkscape:tiled-clone-of="#path15377"
         xlink:href="#path15377"
         transform="matrix(-0.13922667,0.87904262,-0.87904262,-0.13922667,186.0337,4.7734131)"
         fill="#542461"
         stroke="#542461"
         id="use16841"
         inkscape:transform-center-x="-75.486806"
         inkscape:transform-center-y="58.899349"
         width="100%"
         height="100%" />
      <use
         x="0"
         y="0"
         inkscape:tiled-clone-of="#path15377"
         xlink:href="#path15377"
         transform="matrix(-0.27193496,0.83692973,-0.83692973,-0.27193496,195.95701,17.291001)"
         fill="#233858"
         stroke="#233858"
         id="use16843"
         inkscape:transform-center-x="-74.511269"
         inkscape:transform-center-y="60.871294"
         width="100%"
         height="100%" />
      <use
         x="0"
         y="0"
         inkscape:tiled-clone-of="#path15377"
         xlink:href="#path15377"
         transform="matrix(-0.39497173,0.77517568,-0.77517568,-0.39497173,203.78913,33.127581)"
         fill="#214f34"
         stroke="#214f34"
         id="use16845"
         inkscape:transform-center-x="-74.709402"
         inkscape:transform-center-y="62.395154"
         width="100%"
         height="100%" />
      <use
         x="0"
         y="0"
         inkscape:tiled-clone-of="#path15377"
         xlink:href="#path15377"
         transform="matrix(-0.50549532,0.69575462,-0.69575462,-0.50549532,208.95148,51.091559)"
         fill="#3f4700"
         stroke="#3f4700"
         id="use16847"
         inkscape:transform-center-x="-74.253757"
         inkscape:transform-center-y="60.840983"
         width="100%"
         height="100%" />
      <use
         x="0"
         y="0"
         inkscape:tiled-clone-of="#path15377"
         xlink:href="#path15377"
         transform="matrix(-0.60104076,0.60104076,-0.60104076,-0.60104076,211.27527,67.474336)"
         fill="#3f1d1d"
         stroke="#3f1d1d"
         id="use16849"
         inkscape:transform-center-x="-74.229447"
         inkscape:transform-center-y="60.217542"
         width="100%"
         height="100%" />
      <use
         x="0"
         y="0"
         inkscape:tiled-clone-of="#path15377"
         xlink:href="#path15377"
         transform="matrix(-0.67957428,0.49373961,-0.49373961,-0.67957428,210.59142,84.720346)"
         fill="#321a37"
         stroke="#321a37"
         id="use16851"
         inkscape:transform-center-x="-74.208531"
         inkscape:transform-center-y="60.17265"
         width="100%"
         height="100%" />
      <use
         x="0"
         y="0"
         inkscape:tiled-clone-of="#path15377"
         xlink:href="#path15377"
         transform="matrix(-0.73953542,0.37681211,-0.37681211,-0.73953542,205.01451,102.54055)"
         fill="#182130"
         stroke="#182130"
         id="use16853"
         inkscape:transform-center-x="-72.857673"
         inkscape:transform-center-y="59.04858"
         width="100%"
         height="100%" />
      <use
         x="0"
         y="0"
         inkscape:tiled-clone-of="#path15377"
         xlink:href="#path15377"
         transform="matrix(-0.77986634,0.25339394,-0.25339394,-0.77986634,201.31754,118.24607)"
         fill="#15281d"
         stroke="#15281d"
         id="use16855"
         inkscape:transform-center-x="-73.914742"
         inkscape:transform-center-y="59.186966"
         width="100%"
         height="100%" />
      <use
         x="0"
         y="0"
         inkscape:tiled-clone-of="#path15377"
         xlink:href="#path15377"
         transform="matrix(-0.80002756,0.12671192,-0.12671192,-0.80002756,191.58006,133.75679)"
         fill="#1e2106"
         stroke="#1e2106"
         id="use16857"
         inkscape:transform-center-x="-75.304399"
         inkscape:transform-center-y="60.284094"
         width="100%"
         height="100%" />
      <use
         x="0"
         y="0"
         inkscape:tiled-clone-of="#path15377"
         xlink:href="#path15377"
         transform="matrix(-0.8,0,0,-0.8,181.52469,144.76713)"
         fill="#1a0f0f"
         stroke="#1a0f0f"
         id="use16859"
         inkscape:transform-center-x="-75.454257"
         inkscape:transform-center-y="60.758649"
         width="100%"
         height="100%" />
      <use
         x="0"
         y="0"
         inkscape:tiled-clone-of="#path15377"
         xlink:href="#path15377"
         transform="matrix(-0.78027379,-0.12358323,0.12358323,-0.78027379,170.01997,155.93845)"
         fill="#120b13"
         stroke="#120b13"
         id="use16861"
         inkscape:transform-center-x="-75.114223"
         inkscape:transform-center-y="60.606475"
         width="100%"
         height="100%" />
      <use
         x="0"
         y="0"
         inkscape:tiled-clone-of="#path15377"
         xlink:href="#path15377"
         transform="matrix(-0.74182408,-0.24103326,0.24103326,-0.74182408,156.98987,163.90368)"
         fill="#080a0d"
         stroke="#080a0d"
         id="use16863"
         inkscape:transform-center-x="-73.355357"
         inkscape:transform-center-y="59.781876"
         width="100%"
         height="100%" />
      <use
         x="0"
         y="0"
         inkscape:tiled-clone-of="#path15377"
         xlink:href="#path15377"
         transform="matrix(-0.68607502,-0.34957268,0.34957268,-0.68607502,141.5661,171.55317)"
         fill="#040605"
         stroke="#040605"
         id="use16865"
         inkscape:transform-center-x="-72.034923"
         inkscape:transform-center-y="59.922092"
         width="100%"
         height="100%" />
      <use
         x="0"
         y="0"
         inkscape:tiled-clone-of="#path15377"
         xlink:href="#path15377"
         transform="matrix(-0.61485292,-0.44671679,0.44671679,-0.61485292,125.15796,175.74946)"
         fill="#000000"
         stroke="#000000"
         id="use16867"
         inkscape:transform-center-x="-73.287035"
         inkscape:transform-center-y="59.547786"
         width="100%"
         height="100%" />
    </g>
  </g>
</svg>
