<?xml version="1.0" encoding="UTF-8" standalone="no"?>
<!-- Created with Inkscape (http://www.inkscape.org/) -->

<svg
   width="907.79883"
   height="977.44299"
   viewBox="0 0 240.18844 258.61513"
   version="1.1"
   id="svg5504"
   sodipodi:docname="Mandala-2.svg"
   inkscape:version="1.1.2 (b8e25be833, 2022-02-05)"
   xmlns:inkscape="http://www.inkscape.org/namespaces/inkscape"
   xmlns:sodipodi="http://sodipodi.sourceforge.net/DTD/sodipodi-0.dtd"
   xmlns:xlink="http://www.w3.org/1999/xlink"
   xmlns="http://www.w3.org/2000/svg"
   xmlns:svg="http://www.w3.org/2000/svg"
   xmlns:rdf="http://www.w3.org/1999/02/22-rdf-syntax-ns#"
   xmlns:cc="http://creativecommons.org/ns#"
   xmlns:dc="http://purl.org/dc/elements/1.1/">
  <title
     id="title11725">Mandala #2</title>
  <sodipodi:namedview
     id="namedview5506"
     pagecolor="#ffffff"
     bordercolor="#666666"
     borderopacity="1.0"
     inkscape:pageshadow="2"
     inkscape:pageopacity="0.0"
     inkscape:pagecheckerboard="0"
     inkscape:document-units="px"
     showgrid="false"
     units="px"
     inkscape:zoom="0.83972969"
     inkscape:cx="128.01739"
     inkscape:cy="484.08435"
     inkscape:window-width="1920"
     inkscape:window-height="991"
     inkscape:window-x="-9"
     inkscape:window-y="-9"
     inkscape:window-maximized="1"
     inkscape:current-layer="layer3"
     fit-margin-top="10"
     fit-margin-left="10"
     fit-margin-right="10"
     fit-margin-bottom="10" />
  <defs
     id="defs5501">
    <linearGradient
       inkscape:collect="always"
       id="linearGradient10039">
      <stop
         style="stop-color:#ffffff;stop-opacity:1"
         offset="0"
         id="stop10035" />
      <stop
         style="stop-color:#ffff00;stop-opacity:1"
         offset="0.54826707"
         id="stop10619" />
      <stop
         style="stop-color:#ff00ff;stop-opacity:0.58135283"
         offset="1"
         id="stop10037" />
    </linearGradient>
    <inkscape:path-effect
       effect="copy_rotate"
       starting_point="135.37133,80.222757"
       origin="107.95,80.222757"
       id="path-effect5818"
       is_visible="true"
       lpeversion="1"
       method="normal"
       num_copies="16"
       starting_angle="0"
       rotation_angle="22.5"
       gap="-0.01"
       copies_to_360="true"
       mirror_copies="false"
       split_items="false" />
    <inkscape:path-effect
       effect="mirror_symmetry"
       start_point="108.33622,16.607282"
       end_point="108.33622,71.449935"
       center_point="108.33622,44.028608"
       id="path-effect5816"
       is_visible="true"
       lpeversion="1.1"
       mode="free"
       discard_orig_path="false"
       fuse_paths="false"
       oposite_fuse="false"
       split_items="false"
       split_open="false" />
    <filter
       inkscape:collect="always"
       style="color-interpolation-filters:sRGB"
       id="filter6897"
       x="-0.043505037"
       y="-0.040086779"
       width="1.0870101"
       height="1.0801736">
      <feGaussianBlur
         inkscape:collect="always"
         stdDeviation="3.9171641"
         id="feGaussianBlur6899" />
    </filter>
    <radialGradient
       inkscape:collect="always"
       xlink:href="#linearGradient10039"
       id="radialGradient10041"
       cx="109.30356"
       cy="138.6187"
       fx="109.30356"
       fy="138.6187"
       r="114.5758"
       gradientTransform="matrix(1,0,0,1.0804126,0,-11.146687)"
       gradientUnits="userSpaceOnUse" />
  </defs>
  <g
     inkscape:groupmode="layer"
     id="layer3"
     inkscape:label="bg"
     sodipodi:insensitive="true"
     style="display:inline"
     transform="translate(10.790664,-9.3111384)">
    <rect
       style="opacity:0.619744;fill:url(#radialGradient10041);fill-opacity:1;stroke:none;stroke-width:1.70916;stroke-miterlimit:4;stroke-dasharray:none;filter:url(#filter6897)"
       id="rect6873"
       width="216.09438"
       height="234.52106"
       x="1.2563627"
       y="21.358166" />
  </g>
  <g
     inkscape:label="Layer 1"
     inkscape:groupmode="layer"
     id="layer1"
     sodipodi:insensitive="true"
     style="display:inline"
     transform="translate(10.790664,-9.3111384)">
    <g
       id="g5814"
       transform="matrix(1.7091645,0,0,1.7091645,-76.554306,2.5861126)"
       inkscape:path-effect="#path-effect5816;#path-effect5818"
       style="fill:#ff0000;stroke-width:1;stroke-miterlimit:4;stroke-dasharray:none">
      <path
         style="fill:#ff0000;stroke:#000000;stroke-width:1;stroke-linecap:butt;stroke-linejoin:miter;stroke-miterlimit:4;stroke-dasharray:none;stroke-opacity:1"
         d="M 108.33622,50.980493 84.777049,71.449935 M 108.33622,50.980493 131.89539,71.449935 M 97.116291,53.058628 83.183771,80.985631 m 13.93252,-27.927003 29.599149,9.895594 M 87.545696,59.272255 85.360927,90.405186 M 87.545696,59.272255 118.67863,57.087487 M 81.081471,68.675406 90.977065,98.274559 M 81.081471,68.675406 109.00847,54.742888 M 78.707736,79.836537 99.177178,103.39571 M 78.707736,79.836537 99.177178,56.277367 M 80.785871,91.056466 108.71287,104.98899 M 80.785871,91.056466 90.681465,61.457315 m -3.681967,39.169745 31.132932,2.18477 M 86.999498,100.62706 84.81473,69.494131 M 96.402649,107.09129 126.0018,97.195692 M 96.402649,107.09129 82.470131,79.164284 M 107.56378,109.46502 131.12295,88.995579 M 107.56378,109.46502 84.00461,88.995579 m 34.7791,18.391311 13.93252,-27.927007 M 118.78371,107.38689 89.184558,97.491292 m 39.169742,3.681968 2.18477,-31.132932 m -2.18477,31.132932 -31.132926,2.18477 M 134.81853,91.770108 124.92294,62.170955 m 9.89559,29.599153 -27.927,13.932522 M 137.19226,80.608977 116.72282,57.049806 m 20.46944,23.559171 -20.46944,23.559173 m 18.39131,-34.779102 -27.927,-13.93252 m 27.927,13.93252 -9.8956,29.599151 M 128.9005,59.818453 97.767571,57.633684 m 31.132929,2.184769 2.18477,31.13293 M 119.49735,53.354228 89.898198,63.249822 m 29.599152,-9.895594 13.93252,27.927002"
         id="path5687"
         inkscape:original-d="M 108.33622,50.980493 C 84.777049,71.449935 84.777049,71.449935 84.777049,71.449935" />
      <path
         style="fill:#ff0000;stroke:#000000;stroke-width:1;stroke-linecap:butt;stroke-linejoin:miter;stroke-miterlimit:4;stroke-dasharray:none;stroke-opacity:1"
         d="M 107.95,32.055916 C 82.845971,54.456435 90.184072,57.546162 90.184072,57.546162 M 108.72244,32.055916 c 25.10403,22.400519 17.76593,25.490246 17.76593,25.490246 M 89.517348,35.722398 C 74.896557,66.024675 82.858466,66.071041 82.858466,66.071041 m 7.372523,-30.644243 c 31.765411,11.088485 26.168271,16.75119 26.168271,16.75119 M 73.8909,46.163657 c -1.91167,33.590788 5.461918,30.586734 5.461918,30.586734 M 74.437098,45.61746 c 33.590792,-1.911671 30.586732,5.461916 30.586732,5.461916 M 63.449641,61.790105 C 74.538126,93.555511 80.200832,87.958377 80.200832,87.958377 M 63.745241,61.076463 C 94.047519,46.455671 94.093885,54.417579 94.093885,54.417579 M 59.783159,80.222757 C 82.183678,105.32679 85.273405,97.988685 85.273405,97.988685 M 59.783159,79.450317 C 82.183678,54.346287 85.273405,61.684387 85.273405,61.684387 M 63.449641,98.655409 c 30.302277,14.620791 30.348643,6.658881 30.348643,6.658881 M 63.154041,97.941768 C 74.242526,66.176361 79.905231,71.773494 79.905231,71.773494 M 73.8909,114.28186 c 33.59079,1.91167 30.58673,-5.46192 30.58673,-5.46192 m -31.132927,4.91572 C 71.433032,80.144871 78.806619,83.148924 78.806619,83.148924 M 89.517348,124.72312 C 121.28275,113.63463 115.68562,107.97193 115.68562,107.97193 M 88.803706,124.42752 C 74.182914,94.125238 82.144822,94.078872 82.144822,94.078872 M 107.95,128.3896 c 25.10403,-22.40052 17.76593,-25.49025 17.76593,-25.49025 M 107.17756,128.3896 C 82.07353,105.98908 89.41163,102.89935 89.41163,102.89935 m 36.97102,21.82377 c 14.62079,-30.302281 6.65888,-30.348647 6.65888,-30.348647 m -7.37252,30.644247 C 93.903604,113.93023 99.500737,108.26753 99.500737,108.26753 m 42.508363,6.01433 c 1.91167,-33.590791 -5.46192,-30.586737 -5.46192,-30.586737 m 4.91572,31.132927 c -33.59079,1.91168 -30.58673,-5.46191 -30.58673,-5.46191 M 152.45036,98.655409 C 141.36187,66.890003 135.69917,72.487137 135.69917,72.487137 m 16.45559,26.881914 c -30.30228,14.620789 -30.34865,6.658879 -30.34865,6.658879 M 156.11684,80.222757 C 133.71632,55.118728 130.62659,62.456829 130.62659,62.456829 m 25.49025,18.538368 c -22.40052,25.104033 -25.49025,17.76593 -25.49025,17.76593 M 152.45036,61.790105 C 122.14808,47.169314 122.10172,55.131223 122.10172,55.131223 m 30.64424,7.372523 C 141.65747,94.269153 135.99477,88.67202 135.99477,88.67202 m 6.01433,-42.508363 c -33.59079,-1.91167 -30.58673,5.461918 -30.58673,5.461918 m 31.13293,-4.91572 c 1.91167,33.590788 -5.46192,30.586735 -5.46192,30.586735 M 126.38265,35.722398 C 94.617246,46.810883 100.21438,52.473589 100.21438,52.473589 m 26.88191,-16.455591 c 14.6208,30.302278 6.65889,30.348644 6.65889,30.348644"
         id="path5689"
         inkscape:original-d="M 107.95,32.055916 C 82.845971,54.456435 90.184072,57.546162 90.184072,57.546162"
         sodipodi:nodetypes="cc" />
      <path
         style="fill:#ff0000;stroke:#000000;stroke-width:1;stroke-linecap:butt;stroke-linejoin:miter;stroke-miterlimit:4;stroke-dasharray:none;stroke-opacity:1"
         d="m 108.33622,16.607282 -10.65579,8.475964 c -11.71714,9.320195 -1.316904,10.062397 -1.316904,10.062397 0,0 -5.99852,4.41775 -8.235251,7.335046 -28.345116,36.969628 9.780114,28.58303 9.780114,28.58303 m 10.427831,-54.456437 10.65579,8.475964 c 11.71714,9.320195 1.3169,10.062397 1.3169,10.062397 0,0 5.99852,4.41775 8.23525,7.335046 28.34512,36.969628 -9.78011,28.58303 -9.78011,28.58303 M 83.962232,21.301922 77.361177,33.210486 c -7.258541,13.094692 2.634052,9.8004 2.634052,9.8004 0,0 -3.85131,6.377003 -4.801379,9.928193 -12.039809,45.002689 19.973899,22.664588 19.973899,22.664588 M 83.962232,21.301922 97.05051,25.054897 c 14.39191,4.126782 5.06737,8.792487 5.06737,8.792487 0,0 7.23251,1.785934 10.41538,3.625205 40.33514,23.308275 1.90261,30.149962 1.90261,30.149962 M 63.240165,34.966724 61.698795,48.494917 c -1.694896,14.875643 6.183998,8.046381 6.183998,8.046381 0,0 -1.117774,7.365416 -0.636541,11.009863 6.098451,46.184499 27.126839,13.295669 27.126839,13.295669 M 63.240165,34.966724 76.768358,33.425355 c 14.875642,-1.694896 8.046378,6.184 8.046378,6.184 0,0 7.365415,-1.117773 11.009862,-0.63654 46.184502,6.098448 13.295672,27.126836 13.295672,27.126836 M 49.324765,55.521348 53.07774,68.609625 c 4.126782,14.39191 8.792485,5.067373 8.792485,5.067373 0,0 1.785935,7.23251 3.625205,10.415381 23.308276,40.335141 30.149964,1.902605 30.149964,1.902605 M 49.324765,55.521348 61.233329,48.920293 c 13.094692,-7.258542 9.800398,2.634055 9.800398,2.634055 0,0 6.377003,-3.85131 9.928193,-4.801378 45.00269,-12.039812 22.66459,19.973895 22.66459,19.973895 m -59.291985,13.109672 8.475964,10.65579 c 9.320195,11.717143 10.062397,1.316904 10.062397,1.316904 0,0 4.41775,5.99852 7.335046,8.235249 36.969628,28.34512 28.58303,-9.780112 28.58303,-9.780112 M 44.334525,79.836537 52.810489,69.180747 c 9.320195,-11.71714 10.062397,-1.3169 10.062397,-1.3169 0,0 4.41775,-5.99852 7.335046,-8.23525 36.969628,-28.34512 28.58303,9.78011 28.58303,9.78011 m -49.761797,34.801813 11.908564,6.60106 c 13.094692,7.25854 9.8004,-2.63405 9.8004,-2.63405 0,0 6.377003,3.85131 9.928193,4.80138 45.002688,12.03981 22.664588,-19.973902 22.664588,-19.973902 M 49.029165,104.21052 52.78214,91.122247 c 4.126782,-14.39191 8.792487,-5.067369 8.792487,-5.067369 0,0 1.785934,-7.23251 3.625205,-10.41538 23.308275,-40.33514 30.149962,-1.902608 30.149962,-1.902608 m -32.655827,51.1957 13.528193,1.54137 c 14.875643,1.6949 8.046381,-6.184 8.046381,-6.184 0,0 7.365416,1.11778 11.009863,0.63655 C 141.4629,114.82805 108.57407,93.799666 108.57407,93.799666 M 62.693967,124.93259 61.152598,111.4044 c -1.694896,-14.875643 6.184,-8.04638 6.184,-8.04638 0,0 -1.117773,-7.365414 -0.63654,-11.009861 6.098448,-46.184501 27.126836,-13.295672 27.126836,-13.295672 m -10.578303,59.795503 13.088277,-3.75297 c 14.391912,-4.12679 5.067372,-8.79249 5.067372,-8.79249 0,0 7.23251,-1.78593 10.41538,-3.6252 40.33514,-23.308279 1.90261,-30.149967 1.90261,-30.149967 M 83.248591,138.84799 76.647536,126.93943 c -7.258542,-13.09469 2.634055,-9.8004 2.634055,-9.8004 0,0 -3.85131,-6.377 -4.801378,-9.92819 C 62.440401,62.208147 94.454108,84.546247 94.454108,84.546247 m 13.109672,59.291983 10.65579,-8.47596 c 11.71714,-9.3202 1.3169,-10.0624 1.3169,-10.0624 0,0 5.99852,-4.41775 8.23526,-7.33505 28.34511,-36.969623 -9.78012,-28.583025 -9.78012,-28.583025 m -10.42783,54.456435 -10.65579,-8.47596 c -11.71714,-9.3202 -1.3169,-10.0624 -1.3169,-10.0624 0,0 -5.99852,-4.41775 -8.23525,-7.33505 -28.34512,-36.969623 9.78011,-28.583025 9.78011,-28.583025 m 34.80182,49.761795 6.60105,-11.90856 c 7.25854,-13.09469 -2.63405,-9.8004 -2.63405,-9.8004 0,0 3.85131,-6.377 4.80138,-9.92819 12.03981,-45.002694 -19.9739,-22.664593 -19.9739,-22.664593 m 11.20552,54.301743 -13.08828,-3.75297 c -14.39191,-4.12679 -5.06737,-8.79249 -5.06737,-8.79249 0,0 -7.23251,-1.78593 -10.41538,-3.62521 -40.335139,-23.30827 -1.90261,-30.149957 -1.90261,-30.149957 m 51.1957,32.655827 1.54137,-13.52819 c 1.6949,-14.875646 -6.18399,-8.04638 -6.18399,-8.04638 0,0 1.11777,-7.36542 0.63654,-11.009867 C 142.5553,46.709855 121.52691,79.598684 121.52691,79.598684 m 31.13292,45.880106 -13.52819,1.54137 c -14.87564,1.6949 -8.04638,-6.184 -8.04638,-6.184 0,0 -7.36541,1.11777 -11.00986,0.63654 -46.184499,-6.09845 -13.29567,-27.126837 -13.29567,-27.126837 m 59.79551,10.578307 -3.75298,-13.088281 c -4.12678,-14.39191 -8.79249,-5.067373 -8.79249,-5.067373 0,0 -1.78593,-7.23251 -3.6252,-10.415381 C 127.09629,36.017998 120.25461,74.45053 120.25461,74.45053 m 46.32063,30.47364 -11.90857,6.60105 c -13.09469,7.25854 -9.8004,-2.63405 -9.8004,-2.63405 0,0 -6.377,3.85131 -9.92819,4.80137 -45.00269,12.03982 -22.66459,-19.973891 -22.66459,-19.973891 m 59.29198,-13.109672 -8.47596,-10.65579 c -9.32019,-11.71714 -10.0624,-1.316904 -10.0624,-1.316904 0,0 -4.41775,-5.99852 -7.33504,-8.235251 -36.96963,-28.345116 -28.58303,9.780114 -28.58303,9.780114 m 54.45643,10.427831 -8.47596,10.65579 c -9.32019,11.717143 -10.0624,1.3169 -10.0624,1.3169 0,0 -4.41775,5.99852 -7.33504,8.235253 -36.96963,28.34512 -28.58303,-9.780113 -28.58303,-9.780113 m 49.7618,-34.801818 -11.90857,-6.601055 c -13.09469,-7.258541 -9.8004,2.634052 -9.8004,2.634052 0,0 -6.377,-3.85131 -9.92819,-4.801379 -45.002691,-12.039809 -22.66459,19.973899 -22.66459,19.973899 m 54.30175,-11.205517 -3.75298,13.088278 c -4.12678,14.39191 -8.79249,5.067369 -8.79249,5.067369 0,0 -1.78593,7.23251 -3.6252,10.41538 -23.30828,40.335144 -30.14996,1.902608 -30.14996,1.902608 m 32.65582,-51.195702 -13.52819,-1.54137 c -14.87564,-1.694896 -8.04638,6.183998 -8.04638,6.183998 0,0 -7.36542,-1.117774 -11.00986,-0.636541 -46.184502,6.098451 -13.29567,27.126839 -13.29567,27.126839 m 45.8801,-31.132926 1.54137,13.528193 c 1.6949,14.875642 -6.184,8.046378 -6.184,8.046378 0,0 1.11778,7.365415 0.63654,11.009862 -6.09845,46.184505 -27.12683,13.295672 -27.12683,13.295672 m 10.5783,-59.795505 -13.08828,3.752975 c -14.39191,4.126782 -5.06737,8.792485 -5.06737,8.792485 0,0 -7.23251,1.785935 -10.41538,3.625205 -40.335139,23.308276 -1.90261,30.149964 -1.90261,30.149964 m 30.47364,-46.320629 6.60105,11.908564 c 7.25855,13.094692 -2.63405,9.800398 -2.63405,9.800398 0,0 3.85131,6.377003 4.80138,9.928193 12.03981,45.00269 -19.9739,22.66459 -19.9739,22.66459"
         id="path5691"
         inkscape:original-d="m 108.33622,16.607282 -10.65579,8.475964 c -11.71714,9.320195 -1.316904,10.062397 -1.316904,10.062397 0,0 -5.99852,4.41775 -8.235251,7.335046 -28.345116,36.969628 9.780114,28.58303 9.780114,28.58303"
         sodipodi:nodetypes="cscsc" />
    </g>
  </g>
  <metadata
     id="metadata11723">
    <rdf:RDF>
      <cc:Work
         rdf:about="">
        <dc:title>Mandala #2</dc:title>
        <dc:date>2022-05-10</dc:date>
        <dc:creator>
          <cc:Agent>
            <dc:title>Richard Todd</dc:title>
          </cc:Agent>
        </dc:creator>
      </cc:Work>
    </rdf:RDF>
  </metadata>
</svg>
